<svg xmlns="http://www.w3.org/2000/svg" xmlns:xlink="http://www.w3.org/1999/xlink" width="42" height="42" viewBox="0 0 42 42"><defs><style>.a{fill:none;}.b{clip-path:url(#a);}.c{fill:#a6a7a7;}</style><clipPath id="a"><rect class="a" width="19.301" height="19.301"/></clipPath></defs><g class="b" transform="translate(11.436 11.436)"><path class="c" d="M17.979,10.681a1.065,1.065,0,0,1,0-2.067h0L19.3,8.258l-.6-2.227-1.32.354,0-.008a1.066,1.066,0,0,1-1.036-1.789h0l.967-.967-1.63-1.63-.967.967-.005,0a1.067,1.067,0,0,1-1.791-1.034h0L13.269.6,11.042,0l-.353,1.322h-.005a1.066,1.066,0,0,1-2.066,0H8.612L8.258,0,6.031.6l.354,1.321h0A1.066,1.066,0,0,1,4.592,2.952l-.005,0L3.618,1.99,1.988,3.62l.968.967h0A1.066,1.066,0,0,1,1.919,6.377l0,.008L.6,6.031,0,8.258l1.322.354h0a1.065,1.065,0,0,1,0,2.067v.008L0,11.043l.6,2.228,1.32-.354a1.066,1.066,0,0,1,1.036,1.792l0,.005-.968.968,1.63,1.629.968-.967h0A1.066,1.066,0,0,1,6.38,17.382l.005,0L6.031,18.7l2.227.6.354-1.322h0a1.066,1.066,0,0,1,2.07,0h0l.353,1.322,2.228-.6-.354-1.32,0,0a1.067,1.067,0,0,1,1.794-1.036h0l.967.967,1.63-1.629-.967-.968,0-.005a1.066,1.066,0,0,1,1.035-1.792l1.32.354.6-2.228-1.324-.354v-.008M9.65,13.109a3.458,3.458,0,1,1,3.458-3.458A3.458,3.458,0,0,1,9.65,13.109" transform="translate(0 0)"/></g><rect class="a" width="42" height="42"/></svg>