<svg xmlns="http://www.w3.org/2000/svg" width="98.46" height="31.462" viewBox="0 0 98.46 31.462"><defs><style>.a{fill:#8f8f90;}.b{fill:#d6572a;}.c{fill:#f69940;}.d{fill:#5da29a;}</style></defs><path class="a" d="M395.508,293.337a3.248,3.248,0,0,1-.946-.945,3.287,3.287,0,0,1,.942-4.553l6.881-4.522a3.288,3.288,0,1,1,3.611,5.5l-6.881,4.52a3.282,3.282,0,0,1-3.607,0" transform="translate(-356.732 -273.513)"/><path class="b" d="M391.372,284.051A3.128,3.128,0,0,1,389.063,282l-4.579-13.638a3.056,3.056,0,0,1,1.974-3.887,3.143,3.143,0,0,1,3.946,1.973l4.582,13.636a3.061,3.061,0,0,1-1.976,3.892,3.131,3.131,0,0,1-1.638.079" transform="translate(-351.244 -263.068)"/><path class="c" d="M343.074,290.27a3.484,3.484,0,0,1-.3-.217,3.291,3.291,0,0,1-.441-4.631l18.845-22.787a3.287,3.287,0,1,1,5.067,4.189l-18.843,22.789a3.29,3.29,0,0,1-4.333.657" transform="translate(-327.062 -261.44)"/><path class="b" d="M343.077,307.607a3.287,3.287,0,0,1-1.472-3.064l.9-9.487a3.287,3.287,0,1,1,6.545.626l-.9,9.487a3.287,3.287,0,0,1-3.587,2.959,3.242,3.242,0,0,1-1.486-.52" transform="translate(-327.065 -278.777)"/><path class="d" d="M309.624,309.7a3.289,3.289,0,0,1-.172-5.38l15.426-11.583A3.287,3.287,0,1,1,328.825,298L313.4,309.578a3.286,3.286,0,0,1-3.777.122" transform="translate(-308.137 -278.776)"/><g transform="translate(26.099 22.899)"><path class="a" d="M374.256,314.617l-.186,1.1a.2.2,0,0,1-.208.184h-.02c-.29-.021-1.469-.119-2.172-.119-.5,0-.92.087-.92.7,0,.228.1.338.528.631l1.2.828a2.113,2.113,0,0,1,1.106,1.741c0,1.992-1.478,2.787-3.216,2.787a7.219,7.219,0,0,1-1.954-.239.194.194,0,0,1-.166-.186v-.032l.176-1.068a.218.218,0,0,1,.217-.207h.03c.414.044,1.54.131,1.944.131.58,0,1.065-.2,1.065-.894,0-.239-.124-.478-.538-.762l-1.271-.881a2.02,2.02,0,0,1-.931-1.688c0-1.906,1.479-2.461,3.041-2.461a10.224,10.224,0,0,1,2.151.239.149.149,0,0,1,.125.153Z" transform="translate(-368.247 -314.181)"/><path class="a" d="M388.655,316.8l-.011.1c-.217,2.058-1.736,2.634-3.526,2.634-.248,0-.578-.022-.837-.032l-.434,2.645a.269.269,0,0,1-.248.218h-1.336a.164.164,0,0,1-.175-.174v-.033l1.231-7.316c.062-.37.217-.468.548-.522A15,15,0,0,1,386,314.18c1.572,0,2.678.654,2.678,2.21,0,.131-.011.272-.021.414m-2.9-1.078c-.145,0-.723.022-.848.033l-.372,2.221c.113.01.724.021.837.021.92,0,1.427-.347,1.509-1.1l.011-.1a1.4,1.4,0,0,0,.011-.207c0-.621-.362-.871-1.148-.871" transform="translate(-376.078 -314.18)"/><path class="a" d="M404.437,317.676l-.217,1.294c-.424,2.549-1.707,3.5-3.65,3.5a2.424,2.424,0,0,1-2.544-2.666,4.711,4.711,0,0,1,.073-.829l.217-1.294c.455-2.7,1.924-3.5,3.651-3.5a2.389,2.389,0,0,1,2.544,2.646,5.067,5.067,0,0,1-.073.849m-2.75-1.862c-.869,0-1.356.5-1.583,1.862l-.217,1.294a4.415,4.415,0,0,0-.072.762c0,.817.352,1.1,1.034,1.1.869,0,1.376-.556,1.593-1.863l.217-1.294a5.23,5.23,0,0,0,.073-.719c0-.817-.352-1.144-1.044-1.144" transform="translate(-385.096 -314.181)"/><path class="a" d="M418.633,319.047l1.044,3.071a.253.253,0,0,1,.022.087.166.166,0,0,1-.186.163h-1.5c-.115,0-.124-.109-.165-.218l-.93-2.755h-.011c-.041,0-.1.011-.186.011-.217,0-.538-.022-.735-.022l-.455,2.766a.269.269,0,0,1-.247.218h-1.346a.161.161,0,0,1-.165-.174v-.043l1.22-7.305c.063-.37.217-.468.548-.523a14.6,14.6,0,0,1,2.13-.142c1.551,0,2.71.609,2.71,2.079a2.71,2.71,0,0,1-1.748,2.787M417.4,315.76c-.144,0-.682.022-.806.033l-.352,2.09c.113.011.61.022.724.022,1.013,0,1.644-.262,1.644-1.4,0-.567-.4-.741-1.211-.741" transform="translate(-394.006 -314.181)"/><path class="a" d="M436.927,314.613l-.186,1.122a.269.269,0,0,1-.259.206h-1.675l-1.055,6.336a.268.268,0,0,1-.248.218h-1.355a.161.161,0,0,1-.165-.174v-.044l1.054-6.336h-1.686a.154.154,0,0,1-.165-.163v-.043l.186-1.122a.248.248,0,0,1,.238-.207h5.129a.179.179,0,0,1,.186.174Z" transform="translate(-403.86 -314.308)"/><path class="a" d="M449.394,314.617l-.186,1.1a.2.2,0,0,1-.206.184h-.021c-.288-.021-1.468-.119-2.171-.119-.5,0-.921.087-.921.7,0,.228.1.338.528.631l1.2.828a2.114,2.114,0,0,1,1.107,1.741c0,1.992-1.479,2.787-3.216,2.787a7.216,7.216,0,0,1-1.955-.239.193.193,0,0,1-.165-.186v-.032l.175-1.068a.218.218,0,0,1,.217-.207h.031c.414.044,1.542.131,1.945.131.578,0,1.066-.2,1.066-.894,0-.239-.125-.478-.538-.762l-1.273-.881a2.02,2.02,0,0,1-.93-1.688c0-1.906,1.477-2.461,3.04-2.461a10.239,10.239,0,0,1,2.151.239.149.149,0,0,1,.123.153Z" transform="translate(-410.762 -314.181)"/><path class="a" d="M469.551,317.621l-.238,1.405c-.414,2.461-1.582,3.44-3.878,3.44a14.167,14.167,0,0,1-2.171-.163c-.155-.033-.249-.1-.249-.272a.429.429,0,0,1,.01-.109l1.21-7.2a.39.39,0,0,1,.362-.381,15.314,15.314,0,0,1,2.234-.164,2.508,2.508,0,0,1,2.792,2.656,4.148,4.148,0,0,1-.072.784m-2.989-1.861c-.259,0-.589.01-.733.022l-.859,5.084c.144.011.475.022.732.022.994,0,1.594-.392,1.842-1.862l.238-1.405a3.84,3.84,0,0,0,.061-.642c0-.947-.506-1.22-1.282-1.22" transform="translate(-421.868 -314.181)"/><path class="a" d="M482.028,314.613l-1.283,7.664a.257.257,0,0,1-.237.218h-1.386a.148.148,0,0,1-.145-.163v-.055l1.282-7.664a.228.228,0,0,1,.218-.207h1.385a.153.153,0,0,1,.166.163Z" transform="translate(-430.9 -314.308)"/><path class="a" d="M492.791,316.626l-.921,5.553a.267.267,0,0,1-.247.217h-1.366c-.1,0-.144-.076-.144-.174v-.044l.434-2.646H488.3l-.434,2.646a.257.257,0,0,1-.238.217h-1.365a.171.171,0,0,1-.165-.185v-.033l.92-5.553c.341-2.068,1.4-2.394,2.917-2.394h.755c1.159,0,2.151.467,2.151,1.829a3.813,3.813,0,0,1-.052.565m-2.368-.783h-.755c-.569,0-.776.185-.879.783L488.562,318h2.243l.228-1.373a1.816,1.816,0,0,0,.031-.3c0-.359-.175-.479-.641-.479" transform="translate(-434.931 -314.209)"/><path class="a" d="M507.3,319.047l1.044,3.071a.251.251,0,0,1,.021.087.165.165,0,0,1-.186.163h-1.5c-.112,0-.123-.109-.164-.218l-.931-2.755h-.01c-.041,0-.1.011-.185.011-.218,0-.538-.022-.735-.022l-.455,2.766a.269.269,0,0,1-.249.218h-1.344a.162.162,0,0,1-.166-.174v-.043l1.221-7.305c.062-.37.218-.468.548-.523a14.585,14.585,0,0,1,2.131-.142c1.551,0,2.709.609,2.709,2.079a2.712,2.712,0,0,1-1.748,2.787m-1.23-3.288c-.145,0-.682.022-.807.033l-.352,2.09c.114.011.611.022.723.022,1.014,0,1.644-.262,1.644-1.4,0-.567-.4-.741-1.209-.741" transform="translate(-444.177 -314.181)"/><path class="a" d="M526.675,314.646l-3.02,4.692-.486,2.94a.257.257,0,0,1-.238.218h-1.385a.148.148,0,0,1-.144-.163v-.054l.485-2.94-1.447-4.692a.137.137,0,0,1-.011-.065.173.173,0,0,1,.186-.174h1.469c.1,0,.144.086.165.184l.775,2.94,1.759-2.94c.061-.1.134-.184.237-.184h1.561c.082,0,.134.043.134.119a.2.2,0,0,1-.041.12" transform="translate(-454.354 -314.309)"/></g></svg>