<svg xmlns="http://www.w3.org/2000/svg" width="222.965" height="40.216" viewBox="0 0 222.965 40.216"><defs><style>.a{fill:#0092e5;stroke:#8ad1f5;}.a,.c{stroke-miterlimit:10;stroke-width:0.216px;}.b,.d{fill:#fff;}.b,.c{fill-rule:evenodd;}.c{fill:none;stroke:#1a1311;}</style></defs><g transform="translate(0.108 0.108)"><ellipse class="a" cx="18.657" cy="19.297" rx="18.657" ry="19.297" transform="translate(0.719 0.719)"/><path class="b" d="M84.378,97.1V89.725l2.25-9.125h4.844L87.878,95.413l1.375,1.844H84.5l-.125-.156Zm0-10.781L85.753,80.6H84.378Zm-6.25-5.281L79.5,82.475,78.128,88.1V81.038Zm6.25-.438H78.566l1.781,2.125-2.219,8.906v5.625h5.594L82.16,95.382l2.219-9.063V80.6Zm0,9.125V97.1l-1.406-1.719ZM73.222,80.6h4.469l.438.438V88.1l-2.25,9.156h-4.75l3.531-14.782L73.222,80.6Zm4.906,11.032-1.406,5.625h1.406Z" transform="translate(-62.128 -68.961)"/><path class="b" d="M76.45,67.946c7.375,0,13.375,6.3,13.375,14.009s-6,13.976-13.375,13.976v.914c7.844,0,14.25-6.694,14.25-14.891s-6.406-14.89-14.25-14.89Zm0,0h0v-.882h0c-7.844,0-14.25,6.694-14.25,14.89s6.406,14.891,14.25,14.891h0v-.914h0c-7.375,0-13.407-6.27-13.407-13.976S69.075,67.946,76.45,67.946Z" transform="translate(-57.075 -61.939)"/><path class="c" d="M69.767,95.256c10.656,0,19.344-8.975,19.344-19.984,0-11.041-8.688-20.016-19.344-20.016-10.688,0-19.375,8.975-19.375,20.016C50.392,86.281,59.08,95.256,69.767,95.256Z" transform="translate(-50.392 -55.256)"/><path class="d" d="M88.978,68.584V67.99l.375-.281-.125-.187-.25.188v-.688l.875-.625.344.438-.563.406.125.156.594-.438.344.469-1.688,1.219-.031-.063Zm0-1.844.625-.469-.625-.844Zm0-1.313V66.74l-.469.313v-.688l.344-.25-.187-.281-.156.094V65.24l.219-.156.25.344Zm0,1.594-.469.344v.344l.156.219.313-.219v-.688Zm0,.969v.594l-.281-.406.281-.187Zm-.469,1.031a.567.567,0,0,0,.156-.563,1.149,1.149,0,0,0-.156-.5Zm0-3.781v.688l-.375.281.219.281.156-.125v.688l-.25.188-.219-.313V65.584l.469-.344Zm0,2.125v.344l-.156-.219.156-.125Zm0,.594a1.865,1.865,0,0,0-.281-.469,1.359,1.359,0,0,0-.187-.219v.781a1.526,1.526,0,0,0,.094.219c.031.125.031.219-.031.281h-.062v.594a.542.542,0,0,0,.438-.094l.031-.031Zm-.469-2.375v1.344l-.656-.875.656-.469Zm0,1.688a1.688,1.688,0,0,0-.594-.5.629.629,0,0,0-.625.031.669.669,0,0,0-.219.563,2.093,2.093,0,0,0,.469.969,2.144,2.144,0,0,0,.781.75c.063.031.125.031.188.062v-.594c-.063.031-.125,0-.219-.063a2.464,2.464,0,0,1-.406-.406,1.491,1.491,0,0,1-.25-.5c-.031-.156-.031-.25.031-.281.063-.062.156-.031.281.063a1.2,1.2,0,0,1,.375.406,1.085,1.085,0,0,1,.188.281v-.781Zm-3.125-3V62.9l.125.094.156-.25-.281-.156V61.99l.531.344.188-.281.469.281Zm0-2.281v.594l-.125-.094c0,.031-.031.063-.031.094-.031.031-.031.063-.062.063v.063c-.031,0-.031,0-.031.031V61.583a1.675,1.675,0,0,1,.156.344l.094.062Zm0,.906v1.375l-.125.187-.125-.094v-.781l.094-.188-.094-.063V62.74l.25.156Zm-.25,1.938V64.8h0Zm0-3.25V62.74h0v.594l-.469-.281a1,1,0,0,1-.438.031h0v-.5a.4.4,0,0,0,.187-.031.44.44,0,0,0,.344-.531.528.528,0,0,0-.219-.313.287.287,0,0,0-.312-.031v-.531a.858.858,0,0,1,.594.156,2.818,2.818,0,0,1,.313.281Zm0,2v.781l-.344-.219.344-.563Zm0,1.219-.906-.563v.594l.656.406.25-.406Zm-.906-3.656v.531h-.031a.388.388,0,0,0-.25.188.484.484,0,0,0-.094.344.528.528,0,0,0,.219.313c.031.031.094.031.156.063v.5a1.232,1.232,0,0,1-.438-.156,1.024,1.024,0,0,1-.469-.625.826.826,0,0,1,.125-.719.944.944,0,0,1,.594-.438Zm0,3.094-.844-.531.375-.563-.5-.312-.625,1,1.594,1V64.24ZM79.04,62.49V61.24a2.748,2.748,0,0,1,.313.188.685.685,0,0,1,.25.594.613.613,0,0,1-.438.438c-.031.031-.063.031-.125.031Zm0-1.75.156.031-.094.406.594.094L80.04,59.3l-.594-.094-.031.313-.375-.062v.5l.281.063-.062.25-.219-.031Zm0-1.281v.5l-.219-.031v.156c0,.031-.031.031-.031.063v.031l.25.063v.5l-.563-.094a1.524,1.524,0,0,1-.219.094V59.083c.031.031.063.031.094.063a.738.738,0,0,1,.281.25l.406.063Zm0,1.781v1.25a2.056,2.056,0,0,1-.781.031v-.469a3.042,3.042,0,0,0,.5.031c.125-.031.219-.094.219-.188a.248.248,0,0,0-.156-.219,1.048,1.048,0,0,0-.5-.187h-.063v-.469a.188.188,0,0,0,.125.031A4.449,4.449,0,0,1,79.04,61.24Zm-.781-2.156V60.74a.239.239,0,0,1-.156.062.865.865,0,0,1-.281.031v-.5a.243.243,0,0,0,.25-.062.738.738,0,0,0,.188-.281.514.514,0,0,0-.062-.313.314.314,0,0,0-.313-.188.109.109,0,0,0-.062-.031V58.99h.156l.281.094Zm0,1.938v.469a2.214,2.214,0,0,0-.437-.031V60.99c.125,0,.281.031.438.031Zm0,1.031v.469a.188.188,0,0,1-.125-.031.925.925,0,0,1-.313-.063v-.469a4.076,4.076,0,0,0,.406.094Zm-.437-3.063v.469a.355.355,0,0,0-.25.094.432.432,0,0,0-.156.281.363.363,0,0,0,.063.313q.047.141.281.188h.063v.5a.282.282,0,0,1-.156-.031.889.889,0,0,1-.656-.375.793.793,0,0,1-.156-.688.9.9,0,0,1,.969-.75Zm0,2v.469c0,.031-.031.031-.063.031-.125.031-.219.094-.219.156,0,.094.031.156.156.25a.237.237,0,0,1,.125.063v.469a1.607,1.607,0,0,1-.656-.313c-.188-.187-.281-.375-.219-.563a.564.564,0,0,1,.406-.469,1.77,1.77,0,0,1,.469-.094Zm-5.75,1V60.8l1.813-.313.063.5-1.375.25L72.79,62.4l-.625.125-.094-.531Zm0-1.969v-.969l.125-.031.031.219a.745.745,0,0,0,.469.5,2.242,2.242,0,0,0,.906.188l-.25.469a2.437,2.437,0,0,1-.688-.094C72.478,60.208,72.29,60.115,72.072,60.021Zm0-.969v.969a.031.031,0,0,0-.031-.031,1.629,1.629,0,0,1-.437.5,3.876,3.876,0,0,1-.625.313l-.406-.344a3.113,3.113,0,0,0,.75-.438.663.663,0,0,0,.281-.688l-.031-.187.5-.094Zm0,1.75-1.594.281.094.5,1.406-.25.094.656V60.8Zm-5.688,4.219V63.927l.219.375L68.29,63.24l.25.406-2.156,1.375Zm0-1.313a1.253,1.253,0,0,0,.438-.469.534.534,0,0,0,0-.531.473.473,0,0,0-.438-.219v1.219Zm0-1.5V61.8l.156.281-.156.125Zm0-.781L67.54,63.3l.5-.312-.531-.844.375-.219L67.6,61.49l-.375.219-.531-.844-.313.188Zm0-.375v.375l-.094-.156v-.156l.094-.062Zm0,.75v.406l-.094.062V61.74l.031-.031.063.094Zm0,.688v1.219c-.031.031-.062.031-.094.063h0v-.563h0a.147.147,0,0,0,.031-.188.031.031,0,0,0-.031-.031v-.5h.094Zm0,1.438v1.094h-.031l-.062-.094v-1l.062-.063Zm-.094-2.813v.156l-.094-.125.094-.031Zm0,.625v.531l-.312.188v-.531l.313-.188Zm0,.75v.5a.142.142,0,0,0-.156,0c-.062,0-.094.031-.156.062v-.5a.924.924,0,0,1,.313-.062Zm0,.719v.563a2.894,2.894,0,0,1-.312.156v-.5c.031,0,.062-.031.094-.031a1.36,1.36,0,0,0,.219-.187Zm0,.719v1l-.312-.5v-.313Zm-.312-2v.531l-.781.469V62.4l.781-.469Zm0,.625c-.094.063-.219.094-.313.156a1.279,1.279,0,0,0-.469.438v.719a.53.53,0,0,0,.406.125,1.569,1.569,0,0,0,.375-.062v-.5a.683.683,0,0,0-.156.094c-.094,0-.156,0-.187-.063a.147.147,0,0,1,.031-.188,1.359,1.359,0,0,1,.219-.187.115.115,0,0,1,.094-.031v-.5Zm0,1.563v.313l-.156-.219.156-.094ZM65.2,62.271l.625-.406L65.6,61.49l-.406.25Zm-2.438,5.5-.406-.281c-.031.031-.063.125-.156.25a4.187,4.187,0,0,1-.188.375l-.125.125-.125-.094v.719l.188.125.313-.406a2.945,2.945,0,0,0,.344-.531.954.954,0,0,1,.156-.281ZM65.2,61.74v.531l-.406.25-.219-.375.625-.406Zm0,.656-.75.469.25.375.5-.313V62.4Zm0,.75v.719c-.031-.031-.062-.063-.062-.094a.534.534,0,0,1,0-.531c.031-.031.031-.063.063-.094Zm-3.438,3.719v-.688l.281.219.156-.219-.438-.313v-.688l2.531,1.844-.344.438-1.281-.938-.156.219,1.156.844-.313.438Zm0,1.281-.969-.719.438-.563-.406-.281-.781,1.031,1.719,1.25v-.719Zm0-2.969v.688l-.594-.437.344-.438.25.188Zm0,1v.688l-1-.719.344-.438Z" transform="translate(-55.852 -57.365)"/><g transform="translate(5.938 30.625)"><path class="d" d="M66.447,127.77l.25-2.75c.313,0,.656,0,1.031-.031.406,0,.781-.031,1.156-.063l-.656-.625c-.375.031-.688.063-1,.063s-.656.031-1,.031l1-1.031-.531-.5-2.625,2.656.563.5.938-.969.406-.031-.187,2.125.656.625Zm5.125.094a.639.639,0,0,0-.344,0,.488.488,0,0,0-.25.25.436.436,0,0,0,0,.344c.063.125.125.219.25.25a.4.4,0,0,0,.375,0,.64.64,0,0,0,.25-.25.443.443,0,0,0-.031-.344c-.031-.125-.125-.188-.25-.25Zm6.438,1.375a1.935,1.935,0,0,0-.594-.219,4.088,4.088,0,0,1-.469-.156.738.738,0,0,1-.281-.188.3.3,0,0,1-.125-.281c0-.094.063-.156.156-.25a.649.649,0,0,1,.469-.125.683.683,0,0,1,.5.219.768.768,0,0,1,.156.469l.719.031a1.508,1.508,0,0,0-.25-.875,1.668,1.668,0,0,0-2.125-.219,1.073,1.073,0,0,0-.406.688.824.824,0,0,0,.156.625,1.415,1.415,0,0,0,.563.469,4.811,4.811,0,0,0,.531.156,1.381,1.381,0,0,1,.5.188.843.843,0,0,1,.25.219.392.392,0,0,1,.031.281.677.677,0,0,1-.25.281.957.957,0,0,1-.469.094.792.792,0,0,1-.563-.25.627.627,0,0,1-.219-.531l-.75-.062a1.306,1.306,0,0,0,.375,1,1.477,1.477,0,0,0,1.094.531,1.891,1.891,0,0,0,1.094-.281,1.391,1.391,0,0,0,.469-.75.88.88,0,0,0-.125-.625,1.175,1.175,0,0,0-.438-.438Zm10.063-5.188-.438-.531-2.063,1.656,2.344,2.844.594-.438-.969-1.156,1.313-1.063-.438-.5L87.1,125.9l-.531-.656Z" transform="translate(-64.072 -122.864)"/><path class="d" d="M106.3,134.929a.357.357,0,0,0-.25.219.523.523,0,0,0-.031.375.64.64,0,0,0,.25.25.338.338,0,0,0,.344,0,.5.5,0,0,0,.281-.219.639.639,0,0,0,0-.344.444.444,0,0,0-.25-.281A.639.639,0,0,0,106.3,134.929Z" transform="translate(-87.802 -129.679)"/></g><path class="d" d="M181.723,95.325V93.146h1.906v2.178Zm0-3.8V80.76h1.563V91.521Zm0-14.467V74.875h1.156v2.178Zm0-3.771V62.456h.813V66.78h1.625v2.146h-1.625v4.356Zm0-10.826V73.282h-1.188V62.456Zm0,12.419v2.178h-5.594V74.875Zm0,5.884V91.521h-.437V80.76Zm0,12.387h-5.406V90.22h-.187v5.1h5.594V93.146Zm-5.594-4.031V87a1.336,1.336,0,0,0,1.156-.585,2.5,2.5,0,0,0,0-2.731,1.336,1.336,0,0,0-1.156-.585V80.987a3.212,3.212,0,0,1,2.594,1.2,4.286,4.286,0,0,1,1,2.861,4.347,4.347,0,0,1-1,2.861,3.212,3.212,0,0,1-2.594,1.2Zm0-18.5V68.471c.438-.033,1-.065,1.688-.163a14.857,14.857,0,0,0,2.031-.358V70.1c-.469.1-1.219.228-2.219.358a12.39,12.39,0,0,1-1.5.163Zm0-5.2V63.2h2.75v2.211Zm-9.844,7.608a9.635,9.635,0,0,1-1.563-1.463v2.893a2.945,2.945,0,0,0,.375.293l1.188-1.723Zm9.844-9.818v2.211h-1.563v3.056h1.563v2.146a9.96,9.96,0,0,1-1.375.065h-2.219V63.2Zm0,11.671v2.178h-2.281V71.884h2v2.991Zm0,6.112V83.1h0a1.283,1.283,0,0,0-1.125.585,2.35,2.35,0,0,0,0,2.731,1.283,1.283,0,0,0,1.125.585h0v2.113h0a3.152,3.152,0,0,1-2.563-1.2,4.213,4.213,0,0,1-1.031-2.861,4.156,4.156,0,0,1,1.031-2.861,3.152,3.152,0,0,1,2.563-1.2Zm0,9.233v5.1h-1.813v-5.1Zm-11.407,5.267V93.439h2.438v-.91h-2.438V90.513h2.438V89.278h2.031v6.21Zm0-6.957V81.247h.531v2.341h1.969V80.76h2.031v8.063h-2.031V85.766h-1.969V88.53ZM170.5,70.681V68.308h-1.688V62.456h-2V77.379h2v-6.7Zm-5.781.878c-.219-.26-.406-.553-.625-.845a6.92,6.92,0,0,1-.906-3.8V63.236h-1.125v8.225a.562.562,0,0,0,.063-.163,5.2,5.2,0,0,0,1.313,1.983c.469.455.875.845,1.281,1.17V71.559Zm0,9.688V88.53h-2.656V86.417h1.188v-1.2h-1.188V83.068h1.188V81.247Zm0,9.266v2.016h-2.438v.91h2.438v2.048h-2.656v-6.21h.219v1.235Zm-2.656-27.277h-1.031V66.91a7.733,7.733,0,0,1-.813,3.739,9.086,9.086,0,0,1-2.406,2.7l1.469,1.626c.5-.488,1.031-1.008,1.594-1.626a5.76,5.76,0,0,0,1.188-1.886V63.236Zm0,19.832v2.146H160.91v1.2h1.156V88.53h-3.188V81.247h2.031v1.821Zm0,6.21v6.21h-1.813v-6.21Z" transform="translate(-111.017 -59.331)"/><path class="d" d="M375.574,84.416v-3.75a1.025,1.025,0,0,0,.281-.688,1.043,1.043,0,0,0-.281-.719V75.478a7.877,7.877,0,0,1,2.063.875,4.24,4.24,0,0,1,2.219,3.594,4.121,4.121,0,0,1-2.188,3.563,7.563,7.563,0,0,1-2.094.906Zm0-14.875V65.978h.688V60.947h3.531V75.2h-3.531V69.541Zm0-3.563v3.563h-.688v4.688h-3.531V61.353h3.531v4.625Zm0,9.5V79.26a2.65,2.65,0,0,0-1.031-.625,10.579,10.579,0,0,0-3.531-.469,10.912,10.912,0,0,0-3.563.469c-.906.281-1.344.719-1.344,1.281,0,.531.438.969,1.344,1.344a9.232,9.232,0,0,0,3.563.563,9.024,9.024,0,0,0,3.531-.531,2.65,2.65,0,0,0,1.031-.625v3.75a17.537,17.537,0,0,1-4.563.5,14.262,14.262,0,0,1-5.875-.969v-8a14.305,14.305,0,0,1,5.875-1,17.423,17.423,0,0,1,4.563.531ZM365.137,73.7V70.259h1.094V65.853h-1.094V62.416h4.719V73.7Zm0-11.282v3.438h-1.094v4.406h1.094V73.7h-4.719V62.416Zm0,13.532v8a6.716,6.716,0,0,1-.813-.437,4.151,4.151,0,0,1-2.156-3.563,4.2,4.2,0,0,1,2.188-3.594c.25-.125.5-.281.781-.406Zm-14.813,8.188V80.7h5.656v3.438Zm0-12.094V68.6h1.469V66.759h-1.469V63.291h1.469V60.947h3.688V78.135h-3.688V72.041Zm0-8.75v3.469h-1.5q.047.234.094.563a3.771,3.771,0,0,1,.031.594v.344a1.325,1.325,0,0,0-.062.344h1.438v3.438h-2.781a1.73,1.73,0,0,1-.188.25v-9Zm0,17.407v3.438h-2.969V80.7Zm-2.969-17.407v9a7.049,7.049,0,0,1-2,1.563,6.426,6.426,0,0,1-2.906.688V71.134a2.5,2.5,0,0,0,2.094-.969,3.614,3.614,0,0,0,.75-2.25,3.526,3.526,0,0,0-.75-2.219,2.5,2.5,0,0,0-2.094-.969V61.322a6.676,6.676,0,0,1,2.625.531,6.826,6.826,0,0,1,2.031,1.438Zm0,17.407v3.438h-4.906V75.978h.406V80.7Zm-4.906-19.375v3.406h0a2.457,2.457,0,0,0-2.094.969,3.526,3.526,0,0,0-.75,2.219,3.614,3.614,0,0,0,.75,2.25,2.457,2.457,0,0,0,2.094.969h0v3.406h0a6.031,6.031,0,0,1-4.688-2,6.723,6.723,0,0,1,0-9.25,6.111,6.111,0,0,1,4.688-1.969Zm0,14.657v8.156H339.2V75.978ZM326.042,84.7V81.385a.936.936,0,0,0,.312-.125c.844-.375,1.25-.813,1.25-1.344,0-.563-.406-1.031-1.25-1.438a3.238,3.238,0,0,0-.312-.125V75.041a8.271,8.271,0,0,1,3.375,1.219,4.236,4.236,0,0,1,2.156,3.594,4.285,4.285,0,0,1-2.156,3.625,9.289,9.289,0,0,1-3.375,1.219Zm0-12.875V68.384h1.625V66.666h-1.625V63.228h1.625V60.947h3.656V74.728h-3.656V71.822Zm0-8.594v3.438h-1.594c.031.156.063.313.094.5,0,.188.031.375.031.531,0,.125-.031.25-.031.344-.031.125-.031.219-.062.344h1.563v3.438h-3.031a6.611,6.611,0,0,1-2.063,1.625,6.214,6.214,0,0,1-2.75.594V70.728a2.339,2.339,0,0,0,2-.938,3.364,3.364,0,0,0,0-4.156,2.339,2.339,0,0,0-2-.938V61.322a6.224,6.224,0,0,1,2.531.531,6.51,6.51,0,0,1,2,1.375Zm0,11.813v3.313a10.424,10.424,0,0,0-6.469.094c-.813.406-1.25.875-1.25,1.406s.438,1,1.25,1.406a10.754,10.754,0,0,0,6.469.125V84.7a18.314,18.314,0,0,1-3.063.219,14.961,14.961,0,0,1-4.781-.656V75.447a14.962,14.962,0,0,1,4.781-.656A18.125,18.125,0,0,1,326.042,75.041ZM318.2,61.322V64.7h0a2.339,2.339,0,0,0-2,.938,3.364,3.364,0,0,0,0,4.156,2.339,2.339,0,0,0,2,.938h0v3.313h0a5.9,5.9,0,0,1-4.563-1.906,6.338,6.338,0,0,1,0-8.875,5.925,5.925,0,0,1,4.563-1.938Zm0,14.125V84.26a7.135,7.135,0,0,1-1.625-.781,4.285,4.285,0,0,1-2.156-3.625,4.236,4.236,0,0,1,2.156-3.594,6.083,6.083,0,0,1,1.625-.813Zm-37.751,8.688V80.853H282.6v3.281Zm0-5.719V60.947h1.531v7.031h2.813v3.563h-2.813v6.875Zm27.094-9.5a16.69,16.69,0,0,1-5.406-2.406,4.7,4.7,0,0,1-2.375-4.031V61.1H295.7v1.375q.188,2.578-2.531,4.219a17.722,17.722,0,0,1-5.25,2.219l2.156,2.781a14.935,14.935,0,0,0,4.281-1.5,7.948,7.948,0,0,0,3.344-2.844,21.834,21.834,0,0,0,3.625,2.875,10.286,10.286,0,0,0,4.063,1.469l2.156-2.781Zm1.063,7.531V73.01H286.791v3.438h9v8.219h3.844V76.447Zm-28.157-15.5V78.416h-2.125V60.947Zm0,19.907v3.281H270.072V80.853Zm-10.375-4.313V73.51h.063a6.229,6.229,0,0,0,1.75-.25c.563-.188.844-.5.844-.906,0-.469-.281-.781-.844-.969a5.27,5.27,0,0,0-1.75-.281h-.062v-3h0a8.286,8.286,0,0,1,4.594,1.188,3.547,3.547,0,0,1,1.781,3.063,3.492,3.492,0,0,1-1.813,3,8.177,8.177,0,0,1-4.563,1.188Zm0-8.875V64.572h6.969v3.094Zm0-3.938v-3h3.813v3ZM249.353,79.135V75.822c-.406.063-1.063.156-1.969.313a19.348,19.348,0,0,1-2.563.219H243.7V66.947h4.531V63.509H240.04V79.791h3.188a23.008,23.008,0,0,0,4.063-.281c1.031-.188,1.688-.313,2.063-.375Zm20.719-18.407v3h-3.813v-3Zm0,3.844v3.094H263.2V64.572Zm0,3.531v3a5.887,5.887,0,0,0-1.781.281q-.844.281-.844.938,0,.7.844.938a7,7,0,0,0,1.781.25v3.031h0a8.027,8.027,0,0,1-4.469-1.188,3.535,3.535,0,0,1-1.875-3,3.481,3.481,0,0,1,1.875-3.063,8.292,8.292,0,0,1,4.469-1.188Zm0,12.75v3.281h-4V77.447h3.875v3.406Zm-11.125,3.813V60.947h-3.531v8.688H253.79V61.478h-3.531V83.6h3.531V73.635h1.625V84.666Z" transform="translate(-156.999 -58.353)"/><path class="d" d="M405.312,128.8v-.969a1.062,1.062,0,0,0,.937-.531,2.677,2.677,0,0,0,0-2.625,1.062,1.062,0,0,0-.937-.531v-.969a2.017,2.017,0,0,1,1.656.781,3.051,3.051,0,0,1,.656,2.031,3.109,3.109,0,0,1-.656,2.031,1.935,1.935,0,0,1-1.656.781Zm7.219-.156V123.3h-.969v3.625l-1.875-3.625h-1.094v5.375h.969v-3.656l1.844,3.656Zm-7.219-5.469v.969h0a1.062,1.062,0,0,0-.938.531,2.913,2.913,0,0,0,0,2.625,1.062,1.062,0,0,0,.938.531h0v.969h0a1.974,1.974,0,0,1-1.656-.781,3.093,3.093,0,0,1-.625-2.031,3.037,3.037,0,0,1,.625-2.031,1.974,1.974,0,0,1,1.656-.781Zm-9.281,5.5v0Zm0-4.406h1.5l-.031,4.406h1V124.3H400v-.969h-3.969v.938Zm6,4.406V123.3h-.969v5.344Zm-6-5.344v.938H396v-.938Zm0,5.281-1.906-5.281h-.531v1.313l.656,1.875h-.656v1h1l.437,1.156h1Zm-2.438-5.281v1.344l-.656,1.844h.656v1h-1.031l-.406,1.156h-1l1.906-5.344Zm-5.344,3.719v-1.375h.062a.873.873,0,0,0,.563-.187.642.642,0,0,0,.25-.563.461.461,0,0,0-.25-.469,1.08,1.08,0,0,0-.563-.156h-.062v-.969h.187a1.7,1.7,0,0,1,1.219.469,1.453,1.453,0,0,1,.5,1.125,1.784,1.784,0,0,1-.281,1,1.756,1.756,0,0,1-.75.625l1.406,2.125h-1.219Zm0-3.719v.969h-.875v1.375h.875v1.375l-.281-.406h-.594v2.031l-.969-.031V123.33Zm-9.719,5.344v-1a1.131,1.131,0,0,0,.719-.469,2.168,2.168,0,0,0,0-2.438,1.09,1.09,0,0,0-.719-.438v-1a1.958,1.958,0,0,1,1.5.75,3.036,3.036,0,0,1,.625,1.906,3.1,3.1,0,0,1-.625,1.906,2.093,2.093,0,0,1-1.5.781Zm6.75,0v-1h-2.594v-1.25h2.406v-.969h-2.406V124.3h2.563l-.031-.969h-3.531v5.313Zm-6.75-5.344v1a.865.865,0,0,0-.281-.031h-.781v3.406h.781c.094,0,.188-.031.281-.031v1H376.5V123.33h2.031Zm-58.564,4.188v-1h.656l-.656-1.875V123.33h.531l1.906,5.344h-1l-.438-1.156Zm9.156-1.719a3.131,3.131,0,0,0-.781-.312,2.388,2.388,0,0,1-.656-.188,1.171,1.171,0,0,1-.375-.219.55.55,0,0,1-.187-.406.672.672,0,0,1,.187-.406.83.83,0,0,1,.625-.187.73.73,0,0,1,.656.281.851.851,0,0,1,.219.625h.938a2.087,2.087,0,0,0-.375-1.219,1.639,1.639,0,0,0-1.469-.688,1.815,1.815,0,0,0-1.344.5,1.914,1.914,0,0,0-.469,1.031,1.331,1.331,0,0,0,.25.938,1.817,1.817,0,0,0,.75.594,3.4,3.4,0,0,0,.75.219,2.7,2.7,0,0,1,.656.219.886.886,0,0,1,.312.281.478.478,0,0,1,.063.406.675.675,0,0,1-.281.438.933.933,0,0,1-.625.188,1.068,1.068,0,0,1-1.094-1.094H325.9a2.126,2.126,0,0,0,.563,1.406,1.9,1.9,0,0,0,1.5.688,1.946,1.946,0,0,0,1.375-.5,1.7,1.7,0,0,0,.562-1.094,1.445,1.445,0,0,0-.187-.906,1.361,1.361,0,0,0-.594-.594Zm7.25-2.5h-.938l-.75,3.625-.75-3.625H332.9l-.75,3.625-.75-3.625H330.5l1.125,5.375h1.063l.75-3.469.719,3.469h1.063l1.156-5.375Zm1.781,5.375V123.3h-.969v5.344l.969.031Zm6,0V123.3H343.03l-1.219,3.938-1.25-3.938h-1.094v5.375l.938-.031v-2.875l.875,2.906h1.063l.844-2.969v2.969Zm6,0V123.3H349l-1.219,3.938-1.25-3.938h-1.094v5.375l.969-.031v-2.875l.844,2.906h1.063l.875-2.969v2.969Zm2.25,0V123.3h-.969v5.344l.969.031Zm5.219-.031V123.3h-.969v3.625l-1.844-3.625h-1.125v5.375h1v-3.656l1.844,3.656,1.094-.031Zm5.5.031V125.8h-2.156v.906h1.156a2.277,2.277,0,0,1-.375.719.831.831,0,0,1-.781.406A1.151,1.151,0,0,1,360,127.3a2.447,2.447,0,0,1-.312-1.344,2.225,2.225,0,0,1,.313-1.281,1.151,1.151,0,0,1,.969-.531,1.035,1.035,0,0,1,.75.313,1.464,1.464,0,0,1,.344.594h1.063a3.233,3.233,0,0,0-.656-1.25,2.166,2.166,0,0,0-3.188.156,3.563,3.563,0,0,0,0,4.031,2,2,0,0,0,1.656.813,1.37,1.37,0,0,0,.719-.187,1.669,1.669,0,0,0,.5-.406v.438l.969.031Zm7.563-4.375v-.969h-3.5v5.344h.969v-2.188h2.219v-.969h-2.219V124.3Zm4.719,4.375v-1H372.78v-1.25h2.438v-.969H372.78V124.3h2.563v-.969h-3.531v5.313Zm-55.439-5.344v1.344l-.656,1.844h.656v1h-1l-.438,1.156h-1l1.906-5.344ZM310,127.049v-1.375h.063a.872.872,0,0,0,.562-.187.732.732,0,0,0,.25-.563.514.514,0,0,0-.25-.469,1.079,1.079,0,0,0-.562-.156H310v-.969h.188a1.752,1.752,0,0,1,1.219.469,1.453,1.453,0,0,1,.5,1.125,1.589,1.589,0,0,1-.312,1,1.525,1.525,0,0,1-.719.625l1.406,2.125H311.06L310,127.049Zm6.688,1.625-.031-1H314.06v-1.25H316.5v-.969H314.06V124.3h2.563v-.969h-3.531v5.313ZM310,123.33v.969h-.875v1.375H310v1.375l-.281-.406h-.594v2.031l-1-.031V123.33Zm-5.125,5.469v-.969a1.139,1.139,0,0,0,.938-.531,2.678,2.678,0,0,0,0-2.625,1.139,1.139,0,0,0-.938-.531v-.969a2.06,2.06,0,0,1,1.656.781,3.213,3.213,0,0,1,.625,2.031,3.276,3.276,0,0,1-.625,2.031A1.974,1.974,0,0,1,304.872,128.8Zm-2.344-.125-2.313-3.125c.313-.313.625-.656.969-1.063s.656-.781,1-1.188H301c-.312.375-.625.719-.906,1.063-.281.313-.594.625-.937,1V123.3h-.938v5.344h.938v-1.969l.375-.406,1.812,2.406Zm2.344-5.5v.969h-.031a1.049,1.049,0,0,0-.906.531,2.678,2.678,0,0,0,0,2.625,1.049,1.049,0,0,0,.906.531h.031v.969h-.031a1.974,1.974,0,0,1-1.656-.781,3.277,3.277,0,0,1-.625-2.031,3.214,3.214,0,0,1,.625-2.031,1.974,1.974,0,0,1,1.656-.781Z" transform="translate(-189.924 -92.361)"/></g></svg>