<svg xmlns="http://www.w3.org/2000/svg" width="48" height="47.5" viewBox="0 0 48 47.5"><defs><style>.a{fill:none;opacity:0.5;}.b{fill:#1a4c97;}</style></defs><rect class="a" width="48" height="47.5"/><path class="b" d="M15.435,16.815l-5.3-5.3-5.3,5.3a1,1,0,0,1-1.414,0l-.707-.707a1,1,0,0,1,0-1.414l5.3-5.3-5.3-5.3a1,1,0,0,1,0-1.415l.707-.707a1,1,0,0,1,1.414,0l5.3,5.3,5.3-5.3a1,1,0,0,1,1.414,0l.707.707a1,1,0,0,1,0,1.414l-5.3,5.3,5.3,5.3a1,1,0,0,1,0,1.414l-.707.707a1,1,0,0,1-1.414,0Z" transform="translate(13.586 14.327)"/></svg>