<svg xmlns="http://www.w3.org/2000/svg" width="39" height="39" viewBox="0 0 39 39"><defs><style>.a{fill:none;}.b{fill:#fff;}.c,.d{stroke:none;}.d{fill:#707070;}</style></defs><g transform="translate(-304 -185)"><rect class="a" width="39" height="39" transform="translate(304 185)"/><g class="b" transform="translate(315.586 196.586)"><path class="c" d="M 14.39595413208008 14.91444873809814 C 14.25752449035645 14.91444873809814 14.12720489501953 14.86042881011963 14.02901458740234 14.76233863830566 L 8.267874717712402 9.000998497009277 L 7.914324283599854 8.647439002990723 L 7.560764312744141 9.000988960266113 L 1.79902446269989 14.76251888275146 C 1.701094508171082 14.8605785369873 1.571104407310486 14.91444873809814 1.43274450302124 14.91444873809814 C 1.294374465942383 14.91444873809814 1.164384484291077 14.8605785369873 1.066694498062134 14.76276874542236 C 0.9682244658470154 14.66439914703369 0.9142244458198547 14.5343189239502 0.9142244458198547 14.39605903625488 C 0.9142244458198547 14.25779914855957 0.9682244658470154 14.12771892547607 1.066274404525757 14.02976894378662 L 6.827834606170654 8.267998695373535 L 7.1813645362854 7.914448738098145 L 6.827834606170654 7.560898780822754 L 1.066464424133301 1.799318790435791 C 0.9682244658470154 1.701178789138794 0.9142244458198547 1.571098685264587 0.9142244458198547 1.432848691940308 C 0.9142244458198547 1.294588685035706 0.9682244658470154 1.164508700370789 1.066274404525757 1.066558718681335 C 1.164374470710754 0.96831876039505 1.294374465942383 0.9144587516784668 1.43274450302124 0.9144587516784668 C 1.571104407310486 0.9144587516784668 1.701104402542114 0.96831876039505 1.798784494400024 1.066138744354248 L 7.560764312744141 6.827908515930176 L 7.914324283599854 7.181458950042725 L 8.267874717712402 6.827898502349854 L 14.02920436859131 1.066368699073792 C 14.12720489501953 0.9684687256813049 14.25751399993896 0.9144587516784668 14.39595413208008 0.9144587516784668 C 14.53439426422119 0.9144587516784668 14.66470432281494 0.9684687256813049 14.76289463043213 1.066558718681335 C 14.96440410614014 1.268338680267334 14.96440410614014 1.597348690032959 14.76247406005859 1.799558758735657 L 9.000914573669434 7.560888767242432 L 8.647344589233398 7.914448738098145 L 9.000914573669434 8.268009185791016 L 14.76271438598633 14.02958869934082 C 14.96439456939697 14.23154830932617 14.96440410614014 14.5605583190918 14.76247406005859 14.76276874542236 C 14.66470432281494 14.86042881011963 14.53438472747803 14.91444873809814 14.39595413208008 14.91444873809814 Z"/><path class="d" d="M 14.39595413208008 14.41444873809814 C 14.40367412567139 14.41444873809814 14.40678405761719 14.41133880615234 14.4086742401123 14.40944862365723 C 14.41605472564697 14.40206909179688 14.41605472564697 14.39003849029541 14.40917491912842 14.38314914703369 L 8.647374153137207 8.62156867980957 L 7.940224647521973 7.914448738098145 L 8.647374153137207 7.207328796386719 L 14.4086742401123 1.44623875617981 C 14.41605472564697 1.4388587474823 14.41605472564697 1.426828742027283 14.4095344543457 1.42029869556427 C 14.40665435791016 1.417428731918335 14.40368461608887 1.414458751678467 14.39595413208008 1.414458751678467 C 14.38822460174561 1.414458751678467 14.3851146697998 1.417558789253235 14.38276481628418 1.419908761978149 L 8.621434211730957 7.18143892288208 L 7.914344310760498 7.888558864593506 L 7.207224369049072 7.181468963623047 L 1.444984436035156 1.419448733329773 C 1.442544460296631 1.416988730430603 1.440004467964172 1.414458751678467 1.43274450302124 1.414458751678467 C 1.425474405288696 1.414458751678467 1.422934412956238 1.416998744010925 1.419634461402893 1.42029869556427 C 1.416854500770569 1.423078775405884 1.4142245054245 1.425708770751953 1.4142245054245 1.432848691940308 C 1.4142245054245 1.439978718757629 1.416854500770569 1.442608714103699 1.420024514198303 1.445778727531433 L 7.181394577026367 7.207358837127686 L 7.888464450836182 7.914448738098145 L 7.181394577026367 8.621539115905762 L 1.419644474983215 14.38349914550781 C 1.416854500770569 14.3862886428833 1.4142245054245 14.38891887664795 1.4142245054245 14.39605903625488 C 1.4142245054245 14.40318870544434 1.416854500770569 14.40581893920898 1.420494437217712 14.40944862365723 C 1.42294442653656 14.41190910339355 1.425484418869019 14.41444873809814 1.43274450302124 14.41444873809814 C 1.43999445438385 14.41444873809814 1.442524433135986 14.41191864013672 1.445484519004822 14.40895843505859 L 7.207224369049072 8.647428512573242 L 7.914344310760498 7.940338611602783 L 8.621434211730957 8.647459030151367 L 14.38237476348877 14.40859889984131 C 14.38525485992432 14.41147899627686 14.38823413848877 14.41444873809814 14.39595413208008 14.41444873809814 M 1.432739496231079 15.41445159912109 C 1.172144412994385 15.41445159912109 0.91154944896698 15.3149938583374 0.7129044532775879 15.11607837677002 C 0.3146644532680511 14.71825885772705 0.3146644532680511 14.07385921478271 0.7129044532775879 13.67602920532227 L 6.474274635314941 7.914448738098145 L 0.7129044532775879 2.152868747711182 C 0.3146644532680511 1.755048751831055 0.3146644532680511 1.110638737678528 0.7129044532775879 0.7128187417984009 C 0.91154944896698 0.5139087438583374 1.172144412994385 0.4144537448883057 1.432739496231079 0.4144537448883057 C 1.693334460258484 0.4144537448883057 1.953929424285889 0.5139087438583374 2.15257453918457 0.7128187417984009 L 7.914314270019531 6.474348545074463 L 13.67564487457275 0.7128187417984009 C 13.87476444244385 0.5139087438583374 14.13535976409912 0.4144537448883057 14.39595413208008 0.4144537448883057 C 14.65654945373535 0.4144537448883057 14.91714477539063 0.5139087438583374 15.11626434326172 0.7128187417984009 C 15.5135440826416 1.110638737678528 15.5135440826416 1.755048751831055 15.11626434326172 2.152868747711182 L 9.354464530944824 7.914448738098145 L 15.11626434326172 13.67602920532227 C 15.5135440826416 14.07385921478271 15.5135440826416 14.71825885772705 15.11626434326172 15.11607837677002 C 14.91714477539063 15.31498908996582 14.65654468536377 15.41444873809814 14.39595413208008 15.41444873809814 C 14.13535404205322 15.41444873809814 13.87476444244385 15.31498908996582 13.67564487457275 15.11607837677002 L 7.914314270019531 9.354548454284668 L 2.15257453918457 15.11607837677002 C 1.953929424285889 15.3149938583374 1.693334460258484 15.41445159912109 1.432739496231079 15.41445159912109 Z"/></g></g></svg>