<svg xmlns="http://www.w3.org/2000/svg" xmlns:xlink="http://www.w3.org/1999/xlink" width="60" height="60" viewBox="0 0 60 60"><defs><style>.a,.e{fill:#fff;}.a{stroke:#707070;}.b{clip-path:url(#a);}.c{opacity:0.7;}.d{fill:#8b9197;}.d,.e{isolation:isolate;}</style><clipPath id="a"><rect class="a" width="60" height="60" transform="translate(476 549)"/></clipPath></defs><g class="b" transform="translate(-476 -549)"><g class="c" transform="translate(228.644 126.04)"><path class="d" d="M293.4,435.96H260.841a1.134,1.134,0,0,0-.3.029,2.257,2.257,0,0,0-.461.2s-.027-.029-.027,0c-.081.029-.136.117-.217.175L244.97,452.352a1.651,1.651,0,0,0-.38,1.05,1.345,1.345,0,0,0,.109.554,1.17,1.17,0,0,0,.271.554l14.867,15.983c.027.029.027.029.054.029a.833.833,0,0,0,.407.292,1.168,1.168,0,0,0,.543.146H293.4a1.415,1.415,0,0,0,1.357-1.458V437.418A1.4,1.4,0,0,0,293.4,435.96Z" transform="translate(3.766 0)"/><path class="e" d="M264.272,448.168l6.959-6.959a1.458,1.458,0,1,0-2.062-2.062l-6.959,6.959-6.962-6.959a1.458,1.458,0,0,0-2.062,2.062l6.962,6.959-6.962,6.962a1.458,1.458,0,0,0,2.062,2.062l6.962-6.962,6.959,6.962a1.458,1.458,0,1,0,2.062-2.062Z" transform="translate(15.657 5.286)"/></g></g></svg>