<svg xmlns="http://www.w3.org/2000/svg" width="32" height="24" viewBox="0 0 32 24"><defs><style>.a{fill:#fff;}</style></defs><g transform="translate(-4 -8)"><g transform="translate(-902 -880)"><rect class="a" width="2" height="8" rx="1" transform="translate(909 896)"/><rect class="a" width="8" height="2" rx="1" transform="translate(906 899)"/></g><g transform="translate(-878 -880)"><rect class="a" width="8" height="2" rx="1" transform="translate(906 899)"/></g><g transform="translate(8.881 6.289)"><g transform="translate(1 0.711)"><g transform="translate(0 1)"><circle class="a" cx="3" cy="3" r="3" transform="translate(7.118)"/><path class="a" d="M-12.7,145.474a1.235,1.235,0,0,0,.09-1.792,1.346,1.346,0,0,0-1.848-.083c-.018.013-1.818,1.343-7.7,1.343-5.855,0-7.886-1.319-7.974-1.379a1.366,1.366,0,0,0-1.835.188,1.219,1.219,0,0,0,.179,1.771c.208.163,1.88,1.364,6.332,1.787v3.025c0,6.212-1.386,9.066-1.415,9.126a1.231,1.231,0,0,0,.6,1.68,1.365,1.365,0,0,0,.587.131,1.325,1.325,0,0,0,1.182-.7c.059-.112,1.237-2.447,1.587-7.4h1.286c.351,4.957,1.529,7.292,1.588,7.4a1.32,1.32,0,0,0,1.179.7,1.364,1.364,0,0,0,.581-.129,1.235,1.235,0,0,0,.608-1.679c-.014-.028-1.416-2.879-1.416-9.126v-3C-14.608,146.937-13.008,145.75-12.7,145.474Z" transform="translate(32.38 -137.271)"/></g></g></g></g></svg>