<svg xmlns="http://www.w3.org/2000/svg" xmlns:xlink="http://www.w3.org/1999/xlink" width="1280" height="800" viewBox="0 0 1280 800">
  <defs>
    <clipPath id="clip-path">
      <rect id="사각형_117" data-name="사각형 117" width="1280" height="800" fill="#fff" stroke="#707070" stroke-width="1"/>
    </clipPath>
    <linearGradient id="linear-gradient" x1="0.5" x2="0.5" y2="1" gradientUnits="objectBoundingBox">
      <stop offset="0" stop-color="#009dd8"/>
      <stop offset="1" stop-color="#0042a5"/>
    </linearGradient>
    <filter id="사각형_6" x="187" y="86" width="912" height="641" filterUnits="userSpaceOnUse">
      <feOffset dx="3" dy="6" input="SourceAlpha"/>
      <feGaussianBlur stdDeviation="12" result="blur"/>
      <feFlood flood-color="#28689f" flood-opacity="0.522"/>
      <feComposite operator="in" in2="blur"/>
      <feComposite in="SourceGraphic"/>
    </filter>
  </defs>
  <g id="bg" clip-path="url(#clip-path)">
    <g id="그룹_90" data-name="그룹 90">
      <g id="그룹_12" data-name="그룹 12" transform="translate(1 80.333)">
        <path id="패스_11" data-name="패스 11" d="M0,0S225.523,138.666,566.856,77.714,1280,96,1280,96V362.667H0Z" transform="translate(-2 357.333)" opacity="0.3" fill="url(#linear-gradient)" style="mix-blend-mode: multiply;isolation: isolate"/>
        <path id="패스_12" data-name="패스 12" d="M0-28s161.523,187.81,481.523,211.809S1280,110.667,1280,110.667V377.333H0Z" transform="translate(-2 342.667)" opacity="0.3" fill="url(#linear-gradient)" style="mix-blend-mode: multiply;isolation: isolate"/>
        <path id="패스_13" data-name="패스 13" d="M0,223.047s144.606,97.363,536.38-42.667S1280-4,1280-4V364.762H0Z" transform="translate(-2 355.238)" opacity="0.3" fill="url(#linear-gradient)" style="mix-blend-mode: multiply;isolation: isolate"/>
      </g>
      <g id="그룹_21" data-name="그룹 21" transform="translate(801.531 193.924)" opacity="0.4" style="isolation: isolate">
        <path id="패스_76" data-name="패스 76" d="M262.221,605.516c-2.376.687-6.351,4.35-5.329,4.8a20.159,20.159,0,0,0,3.174,1.163c7.23,1.532,13.739,2.422,20.968,3.955l-2.549,2.1a279.732,279.732,0,0,0,47.222,3.783,13.4,13.4,0,0,0,6.286-1.077l-2.208-2.14,15.073.187" transform="translate(-40.062 -76.484)" fill="none" stroke="#fff" stroke-linecap="round" stroke-linejoin="round" stroke-width="2"/>
        <path id="패스_77" data-name="패스 77" d="M369.818,625.061l-3.489.819c13.6,2.867,27.655,2.442,41.549,2l21.22-.668c.88-.028,2.071-.973,1.323-1.439-.871-.449-1.025-1.079-1.9-1.529,2.552-.644,5.015-.6,7.373-1.191,1.966-.5,1.729-3,.972-3.263" transform="translate(-66.23 -79.893)" fill="none" stroke="#fff" stroke-linecap="round" stroke-linejoin="round" stroke-width="2"/>
        <path id="패스_78" data-name="패스 78" d="M463.292,631.856l4.368-.3,11.3-.775" transform="translate(-89.381 -82.516)" fill="none" stroke="#fff" stroke-linecap="round" stroke-linejoin="round" stroke-width="2"/>
        <path id="패스_79" data-name="패스 79" d="M246.766,607.18c-.864.174-2.118.744-2.185,1.544-.1,1.21.841,1.722,2.088,2.09a14.585,14.585,0,0,0,4.449.744" transform="translate(-37.161 -76.881)" fill="none" stroke="#fff" stroke-linecap="round" stroke-linejoin="round" stroke-width="2"/>
        <path id="패스_80" data-name="패스 80" d="M252.918,604.65" transform="translate(-39.153 -76.277)" fill="none" stroke="#fff" stroke-linecap="round" stroke-linejoin="round" stroke-width="2"/>
        <path id="패스_81" data-name="패스 81" d="M266.5,602.73a41.136,41.136,0,0,1,8.183-9.525,5.855,5.855,0,0,0-1.853,4.7,11.135,11.135,0,0,0,1.595,4.926,12.235,12.235,0,0,0,3.958,4.46c1.7,1.073,3.9,1.912,5.794,1.25,1.266,1.342,3.187,1.329,5.006,1.639l6.168,1.051a1.954,1.954,0,0,1,.894.308c.254.2.4.509.633.728a2.38,2.38,0,0,0,1.721.4l5.8-.179a2.216,2.216,0,0,1,1.9.557c.188.248.261.566.432.827a2.45,2.45,0,0,0,1.9.831c2.627.253,5.287-.072,7.909.218,1.334.148,2.654.454,4,.482a5.5,5.5,0,0,0,3.764-1.143,1.675,1.675,0,0,0-.606-1.468" transform="translate(-42.396 -73.545)" fill="none" stroke="#fff" stroke-linecap="round" stroke-linejoin="round" stroke-width="2"/>
        <path id="패스_82" data-name="패스 82" d="M326.531,618.467a25.8,25.8,0,0,1,4.357.158" transform="translate(-56.728 -79.569)" fill="none" stroke="#fff" stroke-linecap="round" stroke-linejoin="round" stroke-width="2"/>
        <path id="패스_83" data-name="패스 83" d="M277.336,610.977c12.149,3.177,24.953,2.055,37.477,2.973" transform="translate(-44.983 -77.788)" fill="none" stroke="#fff" stroke-linecap="round" stroke-linejoin="round" stroke-width="2"/>
        <path id="패스_84" data-name="패스 84" d="M337,615.492a3.976,3.976,0,0,0,1.384.088" transform="translate(-59.228 -78.866)" fill="none" stroke="#fff" stroke-linecap="round" stroke-linejoin="round" stroke-width="2"/>
        <path id="패스_85" data-name="패스 85" d="M345.8,615.432c6.823.046,11.771.254,18.554-.49.231-.026,1.458-1.248,2.776-1.257s3.448.315,5.481.544" transform="translate(-61.33 -78.434)" fill="none" stroke="#fff" stroke-linecap="round" stroke-linejoin="round" stroke-width="2"/>
        <path id="패스_86" data-name="패스 86" d="M277.252,585.734a65.14,65.14,0,0,1,9.1-7.317,21.016,21.016,0,0,1,6.576-2.576c1.688-.3,3.447-.091,5.11-.5,2.444-.608,4.351-2.463,6.13-4.244l8.014-8.017a4.455,4.455,0,0,1,1.185-.94,3.543,3.543,0,0,1,3.567.813,27.265,27.265,0,0,0,2.923,2.511c2.5,1.479,5.778.568,8.506,1.57a11.171,11.171,0,0,0,1.825.657c2.205.4,4.457-1.709,6.54-.882.649.258,1.166.774,1.8,1.063a5,5,0,0,0,2.243.312c2.383-.081,4.784-.593,7.133-.177s4.724,2.145,4.823,4.528a12.185,12.185,0,0,1-.541,2.989c-.6,2.8.078,5.7.837,8.458q.948,3.438,2.077,6.822c.825,2.47,2.013,5.214,4.484,6.04" transform="translate(-44.963 -66.074)" fill="none" stroke="#fff" stroke-linecap="round" stroke-linejoin="round" stroke-width="2"/>
        <path id="패스_89" data-name="패스 89" d="M376.939,623.293c-.237.545,6.018,1.662,9.3,1.85,5.951.341,11.906.681,17.866.649,2.353-.013,13.948-.362,17.394-.465,2.141-.065,8.32-1.253,10.705-2.828" transform="translate(-68.762 -80.539)" fill="none" stroke="#fff" stroke-linecap="round" stroke-linejoin="round" stroke-width="2"/>
        <path id="패스_90" data-name="패스 90" d="M381.54,329.818a2.569,2.569,0,0,0-1.417,2.234,5.7,5.7,0,0,0,.64,2.683c2.125,4.653,6.417,7.937,9.19,12.235.968,1.5,1.745,3.115,2.7,4.621,2.712,4.279,10.107,8.365,10.107,8.365,3.011,1.746,6.181,3.654,7.764,6.754a17.89,17.89,0,0,1,1.481,6.4,432.181,432.181,0,0,1,2.077,54.963c-.081,3.117-.195,6.233-.181,9.35.041,9.034,1.356,16.339,3.012,26.389,0,0-2.656,11.379-5.071,17.912-2.868,7.756-4.347,15.943-6.471,23.935s-4.991,15.983-10.189,22.415c-1.617,2-3.439,3.824-5.167,5.729a73.262,73.262,0,0,0-13.075,19.608" transform="translate(-68.764 -10.66)" fill="none" stroke="#fff" stroke-linecap="round" stroke-linejoin="round" stroke-width="2"/>
        <path id="패스_91" data-name="패스 91" d="M382.5,329.58c.923.181,1.831-.457,2.77-.406a3.571,3.571,0,0,1,2.045,1.07c4.647,4.08,7.667,10.118,13.2,12.872" transform="translate(-70.091 -10.505)" fill="none" stroke="#fff" stroke-linecap="round" stroke-linejoin="round" stroke-width="2"/>
        <path id="패스_92" data-name="패스 92" d="M381.353,314.215a56.223,56.223,0,0,1-14.185-15.594s-2.042,1.162-2.077,1.683a7.035,7.035,0,0,0,1.529,6.059l4.092,5.7c.829,1.154,1.66,2.309,2.571,3.4a29.182,29.182,0,0,0,7.1,6.14" transform="translate(-65.918 -3.211)" fill="none" stroke="#fff" stroke-linecap="round" stroke-linejoin="round" stroke-width="2"/>
        <path id="패스_93" data-name="패스 93" d="M378.448,327.294c-2.942-1-8.377-4.029-11.362-5.351-1.2-.534-2.01-.789-2.093-.519-.342,1.121.393,2.724,1.37,3.891a9.081,9.081,0,0,0,2.258,1.864l6.766,4.1a3.7,3.7,0,0,0,1.907.711" transform="translate(-65.891 -8.63)" fill="none" stroke="#fff" stroke-linecap="round" stroke-linejoin="round" stroke-width="2"/>
        <path id="패스_94" data-name="패스 94" d="M378.778,341.292a3.928,3.928,0,0,0,1.339,3.184c1.616,1.389,5.372.977,7.429,1.532" transform="translate(-69.201 -13.399)" fill="none" stroke="#fff" stroke-linecap="round" stroke-linejoin="round" stroke-width="2"/>
        <path id="패스_95" data-name="패스 95" d="M378.78,341.292c1.618.509,3.385.28,5.042.645" transform="translate(-69.203 -13.399)" fill="none" stroke="#fff" stroke-linecap="round" stroke-linejoin="round" stroke-width="2"/>
        <path id="패스_96" data-name="패스 96" d="M446.972,473.591l2.267-13.156a38.216,38.216,0,0,0,.8-7.877,61.7,61.7,0,0,0-1.179-7.823c-.57-3.4-.786-6.846-1.2-10.267-.589-4.851-1.578-9.644-2.566-14.431-4.687-22.709-9.378-45.436-15.479-67.807,0,0-.256-1.079-.78-3.153-.67-2.652-2.486-4.841-4.251-6.931L410.83,325.852a8.887,8.887,0,0,0-2.075-1.979,21.536,21.536,0,0,0-3.107-1.2,15.181,15.181,0,0,1-2.807-1.656l-4.009-2.774a11.748,11.748,0,0,1-5.522-6.961L389,300.627c-1.028-2.545-2.058-5.092-2.881-7.71-.84-2.673-1.5-5.486-3.155-7.746l-1.991,1.443c-1.3,3.235.032,6.244.713,9.664a148.29,148.29,0,0,0,7.5,25.458" transform="translate(-69.596)" fill="none" stroke="#fff" stroke-linecap="round" stroke-linejoin="round" stroke-width="2"/>
        <path id="패스_97" data-name="패스 97" d="M465.02,520.9c-3.594,18.928-4.391,38.039-8.849,56.625a183.286,183.286,0,0,1-6.628,20.714" transform="translate(-86.098 -56.282)" fill="none" stroke="#fff" stroke-linecap="round" stroke-linejoin="round" stroke-width="2"/>
        <path id="패스_98" data-name="패스 98" d="M456.379,609.407q11.412,2.453,22.91,4.476a8.6,8.6,0,0,0-4.13,1.778,54.984,54.984,0,0,0,23.062,2.463" transform="translate(-87.73 -77.413)" fill="none" stroke="#fff" stroke-linecap="round" stroke-linejoin="round" stroke-width="2"/>
        <path id="패스_99" data-name="패스 99" d="M493.623,615.011l8.336,1.35a69.835,69.835,0,0,0,7.724.958" transform="translate(-96.622 -78.751)" fill="none" stroke="#fff" stroke-linecap="round" stroke-linejoin="round" stroke-width="2"/>
        <path id="패스_100" data-name="패스 100" d="M530.124,605.726a6.428,6.428,0,0,0-4.73,1.937,53.745,53.745,0,0,0,32.778,4,6.709,6.709,0,0,1-2.8-.647c.635-.7,1.739-.6,2.657-.835s1.767-1.456,1.018-2.035l2.878-.384" transform="translate(-104.208 -76.534)" fill="none" stroke="#fff" stroke-linecap="round" stroke-linejoin="round" stroke-width="2"/>
        <path id="패스_101" data-name="패스 101" d="M458.26,601.149c7.271-.554,14.57.279,21.815,1.111l31.117,3.576" transform="translate(-88.179 -75.398)" fill="none" stroke="#fff" stroke-linecap="round" stroke-linejoin="round" stroke-width="2"/>
        <path id="패스_102" data-name="패스 102" d="M524.742,618.016q8.754,1.2,17.576,1.8" transform="translate(-104.052 -79.468)" fill="none" stroke="#fff" stroke-linecap="round" stroke-linejoin="round" stroke-width="2"/>
        <path id="패스_103" data-name="패스 103" d="M491.339,530.934a107.933,107.933,0,0,0-17.911-5.509h-.208c-.527-.206-2.2.817-1.856,1.724a3.528,3.528,0,0,0,.878,1.4c3.881,3.512,9.484,4.215,14.179,6.528,6.429,3.168,10.88,9.192,16.271,13.914a47.726,47.726,0,0,0,8.19,5.771,8.631,8.631,0,0,1,3.481,2.741,7.6,7.6,0,0,1,.789,2.377,115.123,115.123,0,0,1,2.336,28.661" transform="translate(-91.297 -57.355)" fill="none" stroke="#fff" stroke-linecap="round" stroke-linejoin="round" stroke-width="2"/>
        <path id="패스_104" data-name="패스 104" d="M471.4,521.655a53.615,53.615,0,0,1,20.031,8.4" transform="translate(-91.317 -56.462)" fill="none" stroke="#fff" stroke-linecap="round" stroke-linejoin="round" stroke-width="2"/>
        <path id="패스_105" data-name="패스 105" d="M472.439,515.687c8.218-.266,16.052,3.164,23.555,6.527" transform="translate(-91.565 -55.033)" fill="none" stroke="#fff" stroke-linecap="round" stroke-linejoin="round" stroke-width="2"/>
        <path id="패스_106" data-name="패스 106" d="M472.439,508.572a50.253,50.253,0,0,0,9.312,6.538" transform="translate(-91.565 -53.338)" fill="none" stroke="#fff" stroke-linecap="round" stroke-linejoin="round" stroke-width="2"/>
        <path id="패스_107" data-name="패스 107" d="M471.877,499.179a69.038,69.038,0,0,0,17.949,8.319,67.348,67.348,0,0,1,8.32,2.686,13.7,13.7,0,0,1,6.581,5.534" transform="translate(-91.43 -51.095)" fill="none" stroke="#fff" stroke-linecap="round" stroke-linejoin="round" stroke-width="2"/>
        <path id="패스_108" data-name="패스 108" d="M515.691,509.684c-11.089-7.04-18.5-18.446-27.312-28.184a20.194,20.194,0,0,0-3.69-3.4c-.363-.241-1.5,1.149-1.5,1.149a4.889,4.889,0,0,0,.4,4.252,23.044,23.044,0,0,0,2.715,3.484c4.617,5.623,8.03,12.086,12.43,17.356" transform="translate(-94.054 -46.055)" fill="none" stroke="#fff" stroke-linecap="round" stroke-linejoin="round" stroke-width="2"/>
        <path id="패스_109" data-name="패스 109" d="M556.909,579.325,545.828,550.05c-3.178-8.4-6.422-16.917-11.779-24.123a23.679,23.679,0,0,1-3.545-5.549,18.636,18.636,0,0,1-.875-4.142c-.924-7.024-2.559-17.784-2.174-19.506l1.448-6.484a13.685,13.685,0,0,0-2.547,0,5.362,5.362,0,0,0-2.171.91,7.574,7.574,0,0,0-1.927,2.136c-2.638,4.887-2.285,10.778-1.861,16.315" transform="translate(-102.944 -48.947)" fill="none" stroke="#fff" stroke-linecap="round" stroke-linejoin="round" stroke-width="2"/>
        <path id="패스_110" data-name="패스 110" d="M258.2,618.427c.491,1.568,3.058,1.825,4.574,2.459,1.344.563,2.993,1.252,3.151,2.7.042.382-.036.773.037,1.15.218,1.115,1.546,1.558,2.658,1.793l7.12,1.5" transform="translate(-40.413 -79.566)" fill="none" stroke="#fff" stroke-linecap="round" stroke-linejoin="round" stroke-width="2"/>
        <path id="패스_111" data-name="패스 111" d="M360.334,633.493a3.88,3.88,0,0,0,.816,4.545,10.661,10.661,0,0,0,4.325,2.359,115.533,115.533,0,0,0,13.714,3.857c2.452.529,5.045,1.035,6.945,2.673a5.736,5.736,0,0,0,1.047.822,3.233,3.233,0,0,0,1.363.3c1.114.046,2.229-.158,3.342-.085,3.93.255,6.748,3.7,9.935,6.019a19.3,19.3,0,0,0,13.17,3.551" transform="translate(-64.696 -83.163)" fill="none" stroke="#fff" stroke-linecap="round" stroke-linejoin="round" stroke-width="2"/>
        <path id="패스_112" data-name="패스 112" d="M440.713,656.226a32.664,32.664,0,0,0,15.6-4.4,9.557,9.557,0,0,0,3-2.443c1.188-1.615,1.417-3.72,1.608-5.717a7.792,7.792,0,0,0-3.015-8.407,42.075,42.075,0,0,0-7.8-6.2" transform="translate(-83.99 -82.105)" fill="none" stroke="#fff" stroke-linecap="round" stroke-linejoin="round" stroke-width="2"/>
        <path id="패스_113" data-name="패스 113" d="M435.837,666.954l30.071,4.314a93.785,93.785,0,0,0,16.375,1.378,16.324,16.324,0,0,1,5.936.4c-2.6,1.3-5.646,1.22-8.547,1.071q-10.438-.536-20.827-1.73a.724.724,0,0,0-.292.816l2.03,1.723-2.9-.93a1.2,1.2,0,0,0-1.711.552l-3.511,4.975" transform="translate(-82.826 -91.152)" fill="none" stroke="#fff" stroke-linecap="round" stroke-linejoin="round" stroke-width="2"/>
        <path id="패스_114" data-name="패스 114" d="M520.623,619.549c8.283,6.407,19.812,6.253,29.447,10.355.412.176.882.443.907.891.022.394-.323.7-.652.922a7.4,7.4,0,0,1-2.619,1.076,3.042,3.042,0,0,0,2.162,1.571c.885.148,1.9-.075,2.6.477,1.048.819.511,2.513.968,3.761a2.448,2.448,0,0,0,3.026,1.4l-1.386,1.516,8.457,1.621" transform="translate(-103.069 -79.834)" fill="none" stroke="#fff" stroke-linecap="round" stroke-linejoin="round" stroke-width="2"/>
        <path id="패스_115" data-name="패스 115" d="M544.644,623.945l2.537.332c.921.12,1.842.241,2.769.309a24.827,24.827,0,0,0,12.093-2.172" transform="translate(-108.804 -80.518)" fill="none" stroke="#fff" stroke-linecap="round" stroke-linejoin="round" stroke-width="2"/>
        <path id="패스_116" data-name="패스 116" d="M561.608,619.51a19.413,19.413,0,0,0,5.578-.707" transform="translate(-112.854 -79.656)" fill="none" stroke="#fff" stroke-linecap="round" stroke-linejoin="round" stroke-width="2"/>
        <path id="패스_117" data-name="패스 117" d="M289.724,632.262a3.1,3.1,0,0,0,2.031-.315" transform="translate(-47.94 -82.794)" fill="none" stroke="#fff" stroke-linecap="round" stroke-linejoin="round" stroke-width="2"/>
        <path id="패스_118" data-name="패스 118" d="M308.512,633.482a55.512,55.512,0,0,0,14.372-.7" transform="translate(-52.426 -82.994)" fill="none" stroke="#fff" stroke-linecap="round" stroke-linejoin="round" stroke-width="2"/>
        <path id="패스_119" data-name="패스 119" d="M93.23,522.469c-1.338-.3-4.3-.013-4.3,2.062s5.549,3.819,8.729,4.07c6.172.487,18.88.737,18.517,1.462s-5.349.336-5.859,1.493,23.807.666,35.715.657c1.078,0,2.367-.628,2.476-1.027s-1.364-.763-1.436-1.41,6.925-.484,9.33-.625" transform="translate(0 -56.632)" fill="none" stroke="#fff" stroke-linecap="round" stroke-linejoin="round" stroke-width="2"/>
        <path id="패스_120" data-name="패스 120" d="M94.646,519.611c-.484-4.067,1.73-7.96,4.249-11.191,3.419-4.386,7.7-8.3,12.925-10.2-2.1,1.9-2.444,5.139-1.806,7.9s2.077,5.263,3.066,7.919a25.343,25.343,0,0,1,1.589,8.744" transform="translate(-1.349 -50.867)" fill="none" stroke="#fff" stroke-linecap="round" stroke-linejoin="round" stroke-width="2"/>
        <path id="패스_121" data-name="패스 121" d="M117.227,495.8a26.209,26.209,0,0,1,14.3-3.576c2.257.18,4.695.655,6.661-.467,1.344-.767,2.217-2.163,3.487-3.048s3.409-.967,4.029.452a13.072,13.072,0,0,1,.342,1.589c.495,1.687,2.562,2.249,4.3,2.5s3.8.7,4.433,2.341a4.66,4.66,0,0,0,.5,1.285c.629.794,1.923.5,2.808,1,.6.333.939.983,1.447,1.441,1.6,1.446,4.218.61,6.2,1.462,2.492,1.073,3.11,4.347,2.817,7.044s-1.532,5.174-.613,7.727" transform="translate(-6.756 -48.441)" fill="none" stroke="#fff" stroke-linecap="round" stroke-linejoin="round" stroke-width="2"/>
        <path id="패스_122" data-name="패스 122" d="M174.372,533.43c-1.73.751-2.788,1.34-4.517,2.09-.423.183-.932.572-.734.988a.876.876,0,0,0,.685.371,135.63,135.63,0,0,0,39,1.79c1.47-.158,5.092-.462,5.173-.845a9.267,9.267,0,0,0,0-1.5c0-.449,6.087.169,6.087-.37s-.994-.627-1.015-1.063,3.378.006,4.853-.254" transform="translate(-19.135 -59.273)" fill="none" stroke="#fff" stroke-linecap="round" stroke-linejoin="round" stroke-width="2"/>
        <path id="패스_123" data-name="패스 123" d="M174.613,547.317l-8.177-.544c-1.908-.127-3.818-.254-5.707-.547-3.7-.574-10.338-1.768-10.581-3.569s6.42-2.319,6.372-3-2.855-1.158-4.039-1.158" transform="translate(-14.615 -60.483)" fill="none" stroke="#fff" stroke-linecap="round" stroke-linejoin="round" stroke-width="2"/>
        <path id="패스_124" data-name="패스 124" d="M166.912,554.714a112.642,112.642,0,0,0,16.143,2c8.062.409,16.111-.134,16.143.8.031.905-5.023,2.383-10.175,2.874-5.243.5-10.587.005-10.772.522-.369,1.025,3.929,2.412,6.2,2.847a39.28,39.28,0,0,0,12.075.413" transform="translate(-18.619 -64.355)" fill="none" stroke="#fff" stroke-linecap="round" stroke-linejoin="round" stroke-width="2"/>
        <path id="패스_125" data-name="패스 125" d="M217.922,545.645c2.766,1.558,4.884,4.025,6.943,6.443l3.248,3.815a3.025,3.025,0,0,1-1.382.811l9.745,6.714q-7.049.091-14.1-.263c-3.544-.178-7.169-.462-10.411-1.9a24.282,24.282,0,0,0,7.2-3.078l-6.1-.357" transform="translate(-29.376 -62.189)" fill="none" stroke="#fff" stroke-linecap="round" stroke-linejoin="round" stroke-width="2"/>
        <path id="패스_126" data-name="패스 126" d="M190.375,572.25c.907.5,1.822,1.028,2.758,1.526a63.221,63.221,0,0,0,11.833,3.55c4.516.64,9.2.757,9.2,1.476.011,1.261-13.042.358-12.919,2.4s17.251,1.114,17.251,2.425-7.076,1.841-7.341,3.377,3.837,1.054,3.815,3.02-5.317,1.5-8.2,1.105" transform="translate(-24.22 -68.541)" fill="none" stroke="#fff" stroke-linecap="round" stroke-linejoin="round" stroke-width="2"/>
        <path id="패스_127" data-name="패스 127" d="M200.72,589.951a17.068,17.068,0,0,1-6.53,3.41c-1.224.33-2.85,1.08-2.482,2.293.2.671.955.984,1.618,1.21,1.867.636,5.615.446,5.6,1.908s-2.5.993-2.852,2.167c-.333,1.113.955,1.983,2.03,2.423,11.577,4.742,20.7,6.672,36.512,7.731" transform="translate(-24.526 -72.768)" fill="none" stroke="#fff" stroke-linecap="round" stroke-linejoin="round" stroke-width="2"/>
        <path id="패스_128" data-name="패스 128" d="M255.615,536.76l9.774,3.779a2.487,2.487,0,0,1,1.061.632,3.619,3.619,0,0,1,.479,1.021c1.592,3.954,8.256,3.355,10.143,7.178a3.24,3.24,0,0,0-2.573,3.676c.311,1.585,1.754,2.654,3.088,3.566l2.4,1.64a30.569,30.569,0,0,0-7.424,2.551c.264,1.271,1.616,1.959,2.829,2.422a53.376,53.376,0,0,0,13.187,3.191" transform="translate(-39.797 -60.068)" fill="none" stroke="#fff" stroke-linecap="round" stroke-linejoin="round" stroke-width="2"/>
        <path id="패스_129" data-name="패스 129" d="M244.584,483.379a217.406,217.406,0,0,1-20.953,42.986" transform="translate(-32.16 -47.323)" fill="none" stroke="#fff" stroke-linecap="round" stroke-linejoin="round" stroke-width="2"/>
        <path id="패스_130" data-name="패스 130" d="M176.033,516.269c4.237-6.34,10.453-11.037,15.877-16.4,9.621-9.506,16.309-19.776,20.432-32.657.091-.283,1.309-5.429,1.125-5.664" transform="translate(-20.796 -42.112)" fill="none" stroke="#fff" stroke-linecap="round" stroke-linejoin="round" stroke-width="2"/>
        <path id="패스_131" data-name="패스 131" d="M267.949,452.566c2.355-1.44,3.314-5.45,3.518-8.2a13.858,13.858,0,0,1,2.9-7.486,5.389,5.389,0,0,1,2.519-1.968,2.477,2.477,0,0,1,2.856.933,3,3,0,0,1-.342,2.945,25.058,25.058,0,0,0-1.706,2.6,7.113,7.113,0,0,0-.458,3.171c.183,4.988,2.3,9.791,2.192,14.781-.058,2.674-.755,5.344-.416,8,.5,3.885,3.118,7.127,4.568,10.766.717,1.8,1.148,3.7,1.779,5.533a52.845,52.845,0,0,0,2.329,5.418l8.877,18.711" transform="translate(-42.742 -35.722)" fill="none" stroke="#fff" stroke-linecap="round" stroke-linejoin="round" stroke-width="2"/>
        <path id="패스_132" data-name="패스 132" d="M238.247,460.966c-4.453-1.4-5.8-2.311-9.766-4.015-1.04-.448-4.581-2.16-5.964-1.9-1.009.187-.115,2.265.014,2.495.308.545,6.657,4.274,8.741,5.775" transform="translate(-31.781 -40.553)" fill="none" stroke="#fff" stroke-linecap="round" stroke-linejoin="round" stroke-width="2"/>
        <path id="패스_133" data-name="패스 133" d="M258.331,452.8c-2.855-4.8-7.088-7.064-10.968-11.075-3.828-3.958-6.831-8.642-10.572-12.681a2.782,2.782,0,0,0-2.176-1.189,1.935,1.935,0,0,0-1.452,2.1,5.525,5.525,0,0,0,1.1,2.559,174.44,174.44,0,0,0,11.891,16.24,3.51,3.51,0,0,1-4.292.607s-8.419-5.1-15.3-9.375a5,5,0,0,0-2.705-.892,1.923,1.923,0,0,0-1.369.6,2.01,2.01,0,0,0-.18,1.257,5.716,5.716,0,0,0,1.794,2.533c5.379,4.987,16.648,9.975,16.212,10.609-.448.653-1.494.643-2.918.064" transform="translate(-31.838 -34.063)" fill="none" stroke="#fff" stroke-linecap="round" stroke-linejoin="round" stroke-width="2"/>
        <path id="패스_134" data-name="패스 134" d="M289.434,514.5c.018.592.9.582,1.421.866a1.432,1.432,0,0,1,.128,2.144,4.134,4.134,0,0,1-2.213,1.012,14.941,14.941,0,0,1,6.483,1.761c.093.757-.955,1.045-1.717,1.038q-10.87-.105-21.722-.8a11.972,11.972,0,0,1-4.046-.74,4.145,4.145,0,0,1-2.577-3l2.182-.591a100.2,100.2,0,0,0-3.77-24.326,9.809,9.809,0,0,0-1.51-3.448,9.042,9.042,0,0,0-2.508-2.029c-5.423-3.3-12.1-5.632-14.933-11.313a13.854,13.854,0,0,0-1.685-3.1,9.62,9.62,0,0,0-2.352-1.7c-1.355-.827-4.411-2.232-5.859-3.443a1.9,1.9,0,0,1-.591-1.523,1.413,1.413,0,0,1,.782-.952,2.437,2.437,0,0,1,1.37.17,96.433,96.433,0,0,1,9.348,2.736,39.2,39.2,0,0,1,2.424,3.258l2.125,2.316" transform="translate(-34.675 -42.766)" fill="none" stroke="#fff" stroke-linecap="round" stroke-linejoin="round" stroke-width="2"/>
        <path id="패스_137" data-name="패스 137" d="M170.475,363.175c-1.576-.719-2.852-.441-4.61-.627a10.447,10.447,0,0,1-5.214-2.692c-1.469-1.189-3.166-2.673-4.545-3.966,0,0-.945-.974-1.733-.163a3.116,3.116,0,0,0-.5,3.178,7.617,7.617,0,0,0,1.962,2.73,29.616,29.616,0,0,0,3.637,3.057,13.791,13.791,0,0,1,1.56,1.2c.632.6,2.831,2.559,3.454,3.169" transform="translate(-15.453 -16.769)" fill="none" stroke="#fff" stroke-linecap="round" stroke-linejoin="round" stroke-width="2"/>
        <path id="패스_138" data-name="패스 138" d="M215.258,406.684a154.76,154.76,0,0,1-16.99-20.267c-4.615-6.575-8.722-13.513-13.661-19.849a23.03,23.03,0,0,0-3.2-3.507,25.527,25.527,0,0,0-7.9-4.019c-10.37-3.795-21.088-7.349-29.79-14.147a95.647,95.647,0,0,1-9.765-9.228s-.84,2.455-.113,3.787a22.643,22.643,0,0,0,6.111,6.668c2.851,2.213,5.806,4.079,8.657,6.292" transform="translate(-10.651 -12.056)" fill="none" stroke="#fff" stroke-linecap="round" stroke-linejoin="round" stroke-width="2"/>
        <path id="패스_139" data-name="패스 139" d="M150,364.254a58.024,58.024,0,0,1-21.3-4.407c-1.6-.662-3.366-1.648-3.645-3.354-.129-.788.281-1.768,1.076-1.84,0,0,6.6,2.039,9.458,2.782,3.414.887,7.89,2.053,11.4,1.669" transform="translate(-8.619 -16.589)" fill="none" stroke="#fff" stroke-linecap="round" stroke-linejoin="round" stroke-width="2"/>
        <g id="그룹_20" data-name="그룹 20" transform="translate(122.633 347.809)">
          <path id="패스_140" data-name="패스 140" d="M154.669,371.217a49.578,49.578,0,0,1-17.014,8.707,5.328,5.328,0,0,1-2.9.241,1.972,1.972,0,0,1-1.5-2.2s12.5-6.387,18.409-10.077c.139-.086.3-.228.24-.381s-.343.065-.185.1" transform="translate(-133.203 -367.455)" fill="none" stroke="#fff" stroke-linecap="round" stroke-linejoin="round" stroke-width="2"/>
        </g>
        <path id="패스_141" data-name="패스 141" d="M157.706,374.56c1-.037,3.048,1.588,3.572,2.435a2.9,2.9,0,0,1,.513,1.219,2.778,2.778,0,0,1-.183,1.07,33.579,33.579,0,0,1-5.378,10.287,4.57,4.57,0,0,0-.992,1.742,1.44,1.44,0,0,0,.768,1.68,1.929,1.929,0,0,0,1.634-.451,18.336,18.336,0,0,0,5.553-6.992c1.37-2.678,3.366-6.429,4.715-9.408" transform="translate(-15.822 -21.342)" fill="none" stroke="#fff" stroke-linecap="round" stroke-linejoin="round" stroke-width="2"/>
        <path id="패스_142" data-name="패스 142" d="M167.553,373.1c2.421,1.721,5.092,4.677,7.9,5.637,1.562.534,3.171.943,4.674,1.627,5.036,2.291,8.213,7.29,10.9,12.127a204.278,204.278,0,0,1,17.994,43.686" transform="translate(-18.772 -20.994)" fill="none" stroke="#fff" stroke-linecap="round" stroke-linejoin="round" stroke-width="2"/>
      </g>
      <g id="그룹_22" data-name="그룹 22" transform="translate(17.452 51.448) rotate(-3)" opacity="0.89">
        <path id="패스_143" data-name="패스 143" d="M338.093,486.069a23.4,23.4,0,0,0,2.5-5.018,41.587,41.587,0,0,0,1.9-5.456,26.215,26.215,0,0,1,.684-2.612,19.951,19.951,0,0,1,.81-2.733" transform="translate(-178.705 -165.498)" fill="none" stroke="#bbcede" stroke-miterlimit="10" stroke-width="2"/>
        <path id="패스_144" data-name="패스 144" d="M342.61,455.689c1.132-2.085,3.356-3.289,5.119-4.878a14,14,0,0,0,3.864-5.87,6.257,6.257,0,0,0,.4-2.594,8.274,8.274,0,0,1-.2-2.025,4.078,4.078,0,0,1,.679-1.5c1.193-1.9,2.512-3.908,4.585-4.765,2.273-.939,5.031-.293,7.175-1.5a24.956,24.956,0,0,0,2.3-1.769,14.774,14.774,0,0,1,2.437-1.343l7.55-3.56a2.941,2.941,0,0,0,1.391-1.041,1.017,1.017,0,0,0-.424-1.471,1.472,1.472,0,0,0-.827.1l-7.78,2.476" transform="translate(-180.419 -147.695)" fill="none" stroke="#bbcede" stroke-miterlimit="10" stroke-width="2"/>
        <path id="패스_145" data-name="패스 145" d="M394.3,420.661c1.271-.357,3.407-.836,4.678-1.193a4.428,4.428,0,0,0,1.522-.643,1.335,1.335,0,0,0-.557-2.487,4.4,4.4,0,0,0-1.669.071l-1.574.269a48.043,48.043,0,0,0-9.261,2.224.279.279,0,0,1,.357-.1" transform="translate(-197.431 -145.018)" fill="none" stroke="#bbcede" stroke-miterlimit="10" stroke-width="2"/>
        <path id="패스_146" data-name="패스 146" d="M399.993,414.205a24.751,24.751,0,0,1,2.614-.829,1.565,1.565,0,0,0,1.241-1.068,1.263,1.263,0,0,0-.572-1.2,2.753,2.753,0,0,0-1.333-.41,13.987,13.987,0,0,0-3.778.338l-4.633.843c-1.989.362-3.977.725-5.956,1.137" transform="translate(-197.484 -142.884)" fill="none" stroke="#bbcede" stroke-miterlimit="10" stroke-width="2"/>
        <path id="패스_147" data-name="패스 147" d="M291.588,463.267a62.468,62.468,0,0,0-23.874-10.8,11.267,11.267,0,0,0-3.963-.266,10.773,10.773,0,0,0-3.92,1.69,39.782,39.782,0,0,0-8.66,7.66,26.774,26.774,0,0,0,0,3.259c1.28,9.184,4.87,18.45,11.977,24.405a31.383,31.383,0,0,1,4.6,4.039c.966,1.2,1.631,2.626,2.643,3.787a12.172,12.172,0,0,0,4.476,3.018c7.733,3.314,16.821,2.192,24.482-1.287a9.786,9.786,0,0,0,2.851-1.764,11.041,11.041,0,0,0,1.612-2.19L306.9,489.8a10.638,10.638,0,0,0,2-4.983c.113-3.01-2.324-5.823-1.714-8.773" transform="translate(-145.696 -158.616)" fill="none" stroke="#bbcede" stroke-miterlimit="10" stroke-width="2"/>
        <path id="패스_148" data-name="패스 148" d="M308.228,536.7a12.826,12.826,0,0,0,1.842.524.383.383,0,0,0,.3-.021c.084-.058.082-.222-.019-.238" transform="translate(-167.371 -190.716)" fill="none" stroke="#bbcede" stroke-miterlimit="10" stroke-width="2"/>
        <path id="패스_149" data-name="패스 149" d="M302.39,541.295a4.414,4.414,0,0,0,3.427-.231c.056-.029.119-.071.12-.134s-.12-.086-.117-.022" transform="translate(-165.155 -192.299)" fill="none" stroke="#bbcede" stroke-miterlimit="10" stroke-width="2"/>
        <path id="패스_150" data-name="패스 150" d="M305.966,545.917c-.272-.089-.518.188-.65.442a4.442,4.442,0,0,0,.948,5.18" transform="translate(-166.095 -194.208)" fill="none" stroke="#bbcede" stroke-miterlimit="10" stroke-width="2"/>
        <path id="패스_151" data-name="패스 151" d="M312.263,563.412l2.507,1.88a11.922,11.922,0,0,1,3.176,3.069" transform="translate(-168.902 -200.854)" fill="none" stroke="#bbcede" stroke-miterlimit="10" stroke-width="2"/>
        <path id="패스_152" data-name="패스 152" d="M312.05,568.852a11.82,11.82,0,0,1,3.612,1.807,4.072,4.072,0,0,1,1.608,3.537c-.007.054-.046.112-.1.109s-.061-.108-.007-.1" transform="translate(-168.821 -202.918)" fill="none" stroke="#bbcede" stroke-miterlimit="10" stroke-width="2"/>
        <path id="패스_153" data-name="패스 153" d="M314.117,575.24a7.215,7.215,0,0,1,1.947,2.5c.654,1.391.94,3.1,2.2,3.971.227.157.656.19.671-.086" transform="translate(-169.606 -205.343)" fill="none" stroke="#bbcede" stroke-miterlimit="10" stroke-width="2"/>
        <path id="패스_154" data-name="패스 154" d="M257.807,529.563a.85.85,0,0,0-.973-.558,2.724,2.724,0,0,0-1.1.544,17.906,17.906,0,0,1-4.589,2.257,3.32,3.32,0,0,1-1.45.221,3.664,3.664,0,0,1-1.325-.557l-3.765-2.208a3.712,3.712,0,0,0-2.905-.738,2.633,2.633,0,0,0-1.389,1.277,4.6,4.6,0,0,0-.466,3.221,4.976,4.976,0,0,1,.358-3.846c.961-1.516,3-1.987,4.783-1.786s3.468.926,5.234,1.249a3.3,3.3,0,0,0,2.049-.125,1.388,1.388,0,0,0,.75-1.726c-.276-.566-.972-.751-1.522-1.057a3.07,3.07,0,0,1,1.452-5.751c.552-.008,1.168.117,1.605-.22.414-.318.628-1.014,1.149-.974a.989.989,0,0,1,.535.292l2.054,1.763a2.4,2.4,0,0,1,.988,1.4c.061.515-.217,1.037-.106,1.544a1.446,1.446,0,0,0,1.812.869,4.55,4.55,0,0,0,1.826-1.27,3.639,3.639,0,0,1,1.89-1.146c.169-.023,1.023-.315,1.077-.153" transform="translate(-141.338 -183.917)" fill="none" stroke="#bbcede" stroke-miterlimit="10" stroke-width="2"/>
        <path id="패스_155" data-name="패스 155" d="M298.827,567.166a18.6,18.6,0,0,1-8.071,1.691,30.949,30.949,0,0,1-4.741-.534,40.27,40.27,0,0,1-10.547-3.071,18.932,18.932,0,0,1-8.212-7.108,31.118,31.118,0,0,0-1.754-2.951c-.879-1.16-2.074-2.046-3-3.169a9.03,9.03,0,0,1-1.507-8.6c.437-1.227,1.139-2.34,1.675-3.527a11.706,11.706,0,0,1-.977,3.7,3.926,3.926,0,0,0,.277,3.671c1.565-1.246,1.533-3.587,1.389-5.582s-.1-4.358,1.534-5.515c.339-.241,1.01-.234.969.18" transform="translate(-149.258 -190.453)" fill="none" stroke="#bbcede" stroke-miterlimit="10" stroke-width="2"/>
        <path id="패스_156" data-name="패스 156" d="M312.372,553.668a3.281,3.281,0,0,1-3.164-.659,1.619,1.619,0,0,1-.442-.584,2,2,0,0,1-.075-.915,13.046,13.046,0,0,1,.79-3.484,3.007,3.007,0,0,1,.589-1.051,3.415,3.415,0,0,1,.689-.508l5.375-3.305a2.846,2.846,0,0,1,2.211-.613,1.966,1.966,0,0,1,1.3,1.79,1.163,1.163,0,0,1-.792,1.071" transform="translate(-167.54 -192.911)" fill="none" stroke="#bbcede" stroke-miterlimit="10" stroke-width="2"/>
        <path id="패스_157" data-name="패스 157" d="M316.452,553.6l.277-2.3a.44.44,0,0,1,.6-.476,2.855,2.855,0,0,0,1.59-.09.929.929,0,0,0,.444-1.327c.03-.119.258-.056.223.061" transform="translate(-170.492 -195.512)" fill="none" stroke="#bbcede" stroke-miterlimit="10" stroke-width="2"/>
        <path id="패스_158" data-name="패스 158" d="M323.1,560.28c2.861-1.131,5.9-2.4,7.583-4.98a30.28,30.28,0,0,0,1.936-4.342,8.322,8.322,0,0,1,3.538-4.145c1.054-.544,2.262-.753,3.284-1.354s1.853-1.834,1.423-2.939c-.253-.65-.888-1.108-1.079-1.779-.281-.988.482-1.925.979-2.823s.527-2.363-.469-2.617a3.149,3.149,0,0,0,2.068-1.933c.28-.783.238-1.653.522-2.434.491-1.355,1.929-2.405,1.817-3.842a3.5,3.5,0,0,0-1-1.917,19.025,19.025,0,0,0-11.272-6.288" transform="translate(-173.014 -183.956)" fill="none" stroke="#bbcede" stroke-miterlimit="10" stroke-width="2"/>
        <path id="패스_159" data-name="패스 159" d="M242.638,447.16c-.545,7.807,2.589,15.486,5.808,22.62a56.722,56.722,0,0,0,3.089,6.184" transform="translate(-142.456 -156.735)" fill="none" stroke="#bbcede" stroke-miterlimit="10" stroke-width="2"/>
        <path id="패스_160" data-name="패스 160" d="M242.856,399.9a29.034,29.034,0,0,0,2.683,8.765c6.232-8.544,16.055-13.735,23.192-21.539a15.767,15.767,0,0,0,3.25-4.795c1.114-2.869.783-6.067.436-9.124a62.045,62.045,0,0,0-1.727-10.15c-1.031-3.594-2.719-7.04-3.058-10.763a25.845,25.845,0,0,0-.549-5.387c-.538-1.728-2.061-3.351-3.866-3.208l3.524-5.494a88.826,88.826,0,0,1,6.342-9.041,44.584,44.584,0,0,1,14.962-11.639" transform="translate(-142.562 -107.537)" fill="none" stroke="#bbcede" stroke-miterlimit="10" stroke-width="2"/>
        <path id="패스_161" data-name="패스 161" d="M309.554,316.722A18.9,18.9,0,0,1,316,314.416a26.546,26.546,0,0,1,11.439.111,18.3,18.3,0,0,1,9.6,6.434,15.63,15.63,0,0,0-6.211-.694,18.351,18.351,0,0,0-6.217,1.323c-2.37,1.123-4.131,3.192-5.817,5.2-4.011,4.78-8.027,9.566-11.686,14.621-2.306,3.186-4.546,6.71-4.657,10.642a19.71,19.71,0,0,0,1.22,6.454,13.138,13.138,0,0,0,1.645,3.715,12.773,12.773,0,0,0,3.895,3.241,80.386,80.386,0,0,0,9.943,5.178l-.27-.457" transform="translate(-165.18 -106.143)" fill="none" stroke="#bbcede" stroke-miterlimit="10" stroke-width="2"/>
        <path id="패스_162" data-name="패스 162" d="M327.79,398.224c2.4,7.51,4.5,15.436,9.654,21.4" transform="translate(-174.795 -138.164)" fill="none" stroke="#bbcede" stroke-miterlimit="10" stroke-width="2"/>
        <path id="패스_163" data-name="패스 163" d="M336.849,422.553a11.132,11.132,0,0,1,.287,4.751l-.084-.252" transform="translate(-178.233 -147.397)" fill="none" stroke="#bbcede" stroke-miterlimit="10" stroke-width="2"/>
        <path id="패스_164" data-name="패스 164" d="M263.148,359.7a32.394,32.394,0,0,0-7.713,10.272c-1.772,3.735-3.043,6.891-5.014,10.525-.83,1.53-1.919,3.756-2.6,5.357a33.145,33.145,0,0,0-1.476,4.68c-2.165,8.3-4.226,16.812-3.531,25.361" transform="translate(-142.493 -123.545)" fill="none" stroke="#bbcede" stroke-miterlimit="10" stroke-width="2"/>
        <path id="패스_165" data-name="패스 165" d="M355.134,324.171a35.1,35.1,0,0,1,7.568,3.482,24.846,24.846,0,0,1,6.663,6.994c3.44,5.143,5.471,10.574,7.631,16.373.42,1.129,1,2.684,1.349,3.837.389,1.283.689,2.594,1.125,3.861a35.083,35.083,0,0,0,2.373,5.1c2.32,4.32,5.526,9.736,7.788,14.049" transform="translate(-185.172 -110.06)" fill="none" stroke="#bbcede" stroke-miterlimit="10" stroke-width="2"/>
        <path id="패스_166" data-name="패스 166" d="M412.866,414.577c1.3,3.838,2.6,7.435,3.9,11.273a35.818,35.818,0,0,0,9.458,16.514c8.952,10,18.121,20.254,23.051,32.737a56.356,56.356,0,0,1,3.163,11.385c.231,1.379.416,2.766.7,4.134.748,3.585,1.463,7.7,4.349,11.652" transform="translate(-207.082 -144.37)" fill="none" stroke="#bbcede" stroke-miterlimit="10" stroke-width="2"/>
        <path id="패스_167" data-name="패스 167" d="M433.544,504.952c1.03,4.767,2.2,8.193,5.439,10.766,3,2.386,7.376,3.021,9.6,6.144,2.189,3.071,1.559,7.223,1.477,10.993a33.192,33.192,0,0,0,3.408,15.349,40.011,40.011,0,0,1,2.589,5.517,24.969,24.969,0,0,1,.867,6.13,1.724,1.724,0,0,1-.432,1.015,3.108,3.108,0,0,1-1.7.958c-4.7.913-8.147-3.022-11.366-6.564-1.02-1.122-2.047-1.843-3.032-3-.969-1.132-1.9-2.694-2.829-3.854a151.829,151.829,0,0,1-14.338-21.251,27.284,27.284,0,0,1-2.236-4.764c-.611-1.868-.85-3.844-1.48-5.706A28.508,28.508,0,0,0,415.807,510c-3.732-5.5-7.35-11.528-11.081-17.03-1.881-2.774-3.895-5.062-5.049-8.209a15.927,15.927,0,0,0-1.5-3.545,11.449,11.449,0,0,0-1.75-1.9c-6.481-6.05-13.629-11.512-20.11-17.562-1.246-1.163-5.628-6.236-6.852-7.378-2.679-2.5-5.562-4.542-8.241-7.043-.289-.269-.959-.91-1.342-1.2" transform="translate(-186.973 -156.346)" fill="none" stroke="#bbcede" stroke-miterlimit="10" stroke-width="2"/>
        <path id="패스_168" data-name="패스 168" d="M323.6,313.506c2.385-.785,4.491-1.448,6.773-1.967,3.839-.874,7.829.234,11.566,1.474a30.714,30.714,0,0,1,4.146,1.626,21.727,21.727,0,0,1,8.238,7.751,63.459,63.459,0,0,1,4.643,9.875" transform="translate(-173.207 -105.148)" fill="none" stroke="#bbcede" stroke-miterlimit="10" stroke-width="2"/>
        <path id="패스_169" data-name="패스 169" d="M302.064,450.227c.562.3,1.93-.249,2.5-.529a12.046,12.046,0,0,0,2.316-2.823c1.352-2.131,2.725-4.929,3.531-6.2,1.538-2.416,3.362-4.711,4.257-7.432.483-1.471.68-3.026,1.18-4.491,1.345-3.943,4.712-6.817,8.087-9.259,1.307-.946,2.637-1.858,3.967-2.77l5.221-3.582.729-.473c1.076-5.5,5.642-9.548,8.349-14.453,1.309-2.371,2.225-5.019,4.077-7,.455-.485,1.209-.939,1.731-.526a1.238,1.238,0,0,1,.356.573c.944,2.643-.951,5.359-1.667,8.072a2.529,2.529,0,0,0,.025,1.773c.5.979,1.843,1.062,2.936.959,5.2-.493,10.331-2.171,15.545-1.8a2.4,2.4,0,0,1,1.626.563c.4.429.12,2.221-.447,2.376" transform="translate(-165.032 -135.246)" fill="none" stroke="#bbcede" stroke-miterlimit="10" stroke-width="2"/>
        <path id="패스_170" data-name="패스 170" d="M420.563,436.857a12.827,12.827,0,0,0,2.362,3.4c3.2,3.566,10.962,12.713,11.858,13.754,1.491,1.733,3.259,4.011,4.619,5.653.888,1.072,1.825,2.58,2.62,3.723A111.13,111.13,0,0,1,447.537,474" transform="translate(-210.003 -152.825)" fill="none" stroke="#bbcede" stroke-miterlimit="10" stroke-width="2"/>
        <path id="패스_171" data-name="패스 171" d="M150.126,272.68c-.065.29-.392.424-.668.534a5.824,5.824,0,0,0-1.191.642c-.135.094-.4.228-.4.415s.258.279.233.46c-.014.1-.245.332-.3.452a2.6,2.6,0,0,0-.153.532c-.076.375-.1.76-.173,1.136a4.057,4.057,0,0,1-1.935,2.6,5.49,5.49,0,0,1-3.215.678,1.927,1.927,0,0,1-.846-.221,2.276,2.276,0,0,1-.819-1.285.99.99,0,0,1-1.138-.124c-.3-.277-.656-.883-.48-1.252a7.94,7.94,0,0,0,2.772-1.665,4.51,4.51,0,0,0,.63-1.827l.323-1.7a13.364,13.364,0,0,1,1.842.146.792.792,0,0,1,.4.137c.329.271.092.876.387,1.183a2.727,2.727,0,0,1,2.439.782" transform="translate(-103.145 -90.286)" fill="none" stroke="#bbcede" stroke-miterlimit="10" stroke-width="2"/>
        <path id="패스_172" data-name="패스 172" d="M133.154,275.58c-1.387.466-3.134-.6-4.451-1.237l-2.667-1.295a2.753,2.753,0,0,1-.733-.457c-.3-.292-.46-.711-.777-.985s-.8-.4-.975-.788a1.377,1.377,0,0,1,.265-1.218l.645-1.092a1.494,1.494,0,0,1,.357-.456,1.348,1.348,0,0,1,.751-.207c1.527-.08,3.071.364,4.574.082.788-.148,1.652-.481,2.343-.074.408.241.656.7,1.072.929.529.29,1.188.141,1.773.289a1.816,1.816,0,0,1,1.326,1.5" transform="translate(-97.26 -88.614)" fill="none" stroke="#bbcede" stroke-miterlimit="10" stroke-width="2"/>
        <path id="패스_173" data-name="패스 173" d="M141.711,284.248a2.882,2.882,0,0,0-.293,1.583,1.944,1.944,0,0,0,1.377,1.356,5.721,5.721,0,0,0,2.011.136,10.925,10.925,0,0,0-.765,5.145c.287,1.618,1.281,3.008,1.951,4.508.7,1.569,1.055,3.276,1.77,4.839a15.246,15.246,0,0,0,5.973,6.359,45.462,45.462,0,0,0,8.042,3.66c2.963,1.123,6.09,2.265,9.225,1.8a37.745,37.745,0,0,0,3.915-1.02,20.574,20.574,0,0,0,3.091-.879,3.993,3.993,0,0,0,2.261-2.162" transform="translate(-104.054 -94.91)" fill="none" stroke="#bbcede" stroke-miterlimit="10" stroke-width="2"/>
        <path id="패스_174" data-name="패스 174" d="M194.16,323.939c1.653.848,4.514,1.593,6.165.742" transform="translate(-124.082 -109.972)" fill="none" stroke="#bbcede" stroke-miterlimit="10" stroke-width="2"/>
        <path id="패스_175" data-name="패스 175" d="M191.05,318.73a7.637,7.637,0,0,0,3.475,1.388,4.6,4.6,0,0,0,2.177-.169" transform="translate(-122.901 -107.996)" fill="none" stroke="#bbcede" stroke-miterlimit="10" stroke-width="2"/>
        <path id="패스_176" data-name="패스 176" d="M193.924,315.988a3.812,3.812,0,0,0,2.6.069c.049-.024.1-.056.112-.11" transform="translate(-123.992 -106.94)" fill="none" stroke="#bbcede" stroke-miterlimit="10" stroke-width="2"/>
        <path id="패스_177" data-name="패스 177" d="M193.444,312.216l.9.119a2.229,2.229,0,0,0,.8.007.752.752,0,0,0,.575-.506" transform="translate(-123.81 -105.379)" fill="none" stroke="#bbcede" stroke-miterlimit="10" stroke-width="2"/>
        <path id="패스_178" data-name="패스 178" d="M187.383,306.431c.89.148,2.956.988,3.84.807a2.983,2.983,0,0,0,2.131-1.51" transform="translate(-121.51 -103.062)" fill="none" stroke="#bbcede" stroke-miterlimit="10" stroke-width="2"/>
        <path id="패스_179" data-name="패스 179" d="M188.258,299.845c-1.143-.169-2.215.5-3.276.958s-2.482.632-3.211-.265c-.629-.775-.389-1.911-.117-2.872l.707-2.494a2.128,2.128,0,0,1,1.486-1.718l4.377-2.117a3.74,3.74,0,0,1,2.231-.547c.767.141,1.431,1.021,1.053,1.7" transform="translate(-119.229 -97.38)" fill="none" stroke="#bbcede" stroke-miterlimit="10" stroke-width="2"/>
        <path id="패스_180" data-name="패스 180" d="M190.085,300.007a2.188,2.188,0,0,1,.114-1.464,1.562,1.562,0,0,1,1.163-.669,1.369,1.369,0,0,0,.712-.585,1.239,1.239,0,0,0,.122-.75" transform="translate(-122.509 -99.574)" fill="none" stroke="#bbcede" stroke-miterlimit="10" stroke-width="2"/>
        <path id="패스_181" data-name="패스 181" d="M178.2,294.416a5.477,5.477,0,0,1-2.149-3.8,5.244,5.244,0,0,1,1.419-4.077" transform="translate(-117.2 -95.778)" fill="none" stroke="#bbcede" stroke-miterlimit="10" stroke-width="2"/>
        <path id="패스_182" data-name="패스 182" d="M172.815,285.779a4.43,4.43,0,0,1,1-2.245,4.757,4.757,0,0,1,1.646-1.278" transform="translate(-115.981 -94.154)" fill="none" stroke="#bbcede" stroke-miterlimit="10" stroke-width="2"/>
        <path id="패스_183" data-name="패스 183" d="M171.311,279.089a6.6,6.6,0,0,0,.02-1.792,3.9,3.9,0,0,1,1.465-2.635" transform="translate(-115.41 -91.272)" fill="none" stroke="#bbcede" stroke-miterlimit="10" stroke-width="2"/>
        <path id="패스_184" data-name="패스 184" d="M202.651,298.574a24.972,24.972,0,0,0,4-4.172,10.2,10.2,0,0,0,2.024-5.344,7.42,7.42,0,0,1,.125-1.491,4.194,4.194,0,0,1,.868-1.544,12.485,12.485,0,0,1,4.178-3.345c1-.493,2.251-1.106,2.249-2.223a3.142,3.142,0,0,0-.975-1.819,1.963,1.963,0,0,1-.556-1.92c.29-.646,1.217-1.032,1.111-1.732-.034-.227-.181-.422-.231-.646-.136-.613.467-1.131.621-1.739.311-1.226-1.233-2.288-1.082-3.545a3.767,3.767,0,0,1,.294-.893,5.5,5.5,0,0,0-2.806-6.772c-2.205-.967-4.792-.344-7.126-.936a7.149,7.149,0,0,1-5.143-5.447" transform="translate(-126.374 -83.812)" fill="none" stroke="#bbcede" stroke-miterlimit="10" stroke-width="2"/>
        <path id="패스_185" data-name="패스 185" d="M162.322,215.128a19.6,19.6,0,0,0-10-6.2,37.764,37.764,0,0,0-3.781-.692c-1.908-.282-3.819-.556-5.743-.694a11.989,11.989,0,0,0-4.819.406,10.429,10.429,0,0,0-4.251,3.133,31.529,31.529,0,0,0-2.884,3.468c-.093.358-.382,1.3-.382,1.3,1.608,4.995,3.037,9.979,4.644,14.974a49.368,49.368,0,0,0,4.053,10.011,16.572,16.572,0,0,0,7.8,7.221,21.141,21.141,0,0,0,7.906,1.151,30.436,30.436,0,0,0,8.073-.881,14.15,14.15,0,0,0,6.92-4.077c1.928-2.187,2.912-5.033,3.725-7.832.7-2.427,1.315-6.187,1.83-8.661" transform="translate(-99.906 -65.773)" fill="none" stroke="#bbcede" stroke-miterlimit="10" stroke-width="2"/>
        <path id="패스_186" data-name="패스 186" d="M161.782,216.27a45.3,45.3,0,0,1,14.94-14.361,29.843,29.843,0,0,0,2.875-1.8,20.314,20.314,0,0,0,3.995-4.412c4.092-5.63,7.857-11.87,13.862-15.389a26.533,26.533,0,0,0,2.913-1.409,30.166,30.166,0,0,1,3.132-2.115,10.144,10.144,0,0,1,1.814-.565l2.033-.5a22.9,22.9,0,0,1,7.2-.964c1.146.092,2.273.357,3.416.478a26.074,26.074,0,0,0,5.915-.253c.839-.1,1.931-.069,2.226.723.275.736-.417,1.47-1.1,1.855a6.971,6.971,0,0,1-3.266.892c-1.3.027-2.838-.228-3.7.745" transform="translate(-111.794 -53.343)" fill="none" stroke="#bbcede" stroke-miterlimit="10" stroke-width="2"/>
        <path id="패스_187" data-name="패스 187" d="M243.267,179.514a14.274,14.274,0,0,0,3.819,7.075,2.564,2.564,0,0,0,.96.684c.843.281,1.768-.271,2.637-.092a3.417,3.417,0,0,0,.524.109,2.066,2.066,0,0,0,.8-.214,4.254,4.254,0,0,1,3.132.058c.641.271,1.285.9,1.078,1.564-.192.617-.95.8-1.531,1.083-.942.46-1.6,1.386-2.561,1.809a5.635,5.635,0,0,1-1.611.357,15.838,15.838,0,0,1-3.911.146c-1.435-.186-2.9-.762-4.283-.326-.441.139-.845.377-1.285.516a6.192,6.192,0,0,1-2.818,0,4.2,4.2,0,0,1-1.5-.43,4.926,4.926,0,0,1-1.219-1.217,14.364,14.364,0,0,0-5.812-4.221" transform="translate(-137.566 -55.162)" fill="none" stroke="#bbcede" stroke-miterlimit="10" stroke-width="2"/>
        <path id="패스_188" data-name="패스 188" d="M198.39,225.7c3.511-3.307,5.732-7.739,8.829-11.436a28.327,28.327,0,0,0,2.226-2.78,31.178,31.178,0,0,0,1.789-3.624c.547-1.157,1.181-2.272,1.813-3.384l4.117-7.241c.808-1.422,1.762-2.963,3.331-3.427" transform="translate(-125.687 -60.589)" fill="none" stroke="#bbcede" stroke-miterlimit="10" stroke-width="2"/>
        <path id="패스_189" data-name="패스 189" d="M196.458,223.5c.1-.659.3-1.437.933-1.655" transform="translate(-124.954 -71.226)" fill="none" stroke="#bbcede" stroke-miterlimit="10" stroke-width="2"/>
        <path id="패스_190" data-name="패스 190" d="M130.7,116.069a174.1,174.1,0,0,0,7.4,18.186,67.191,67.191,0,0,1,4.121,9.731,17.934,17.934,0,0,1,.259,10.42,26.031,26.031,0,0,1-1.916,4.206l-2.154,4.07a29.75,29.75,0,0,1-4.086,6.351c-.83.906-1.77,1.706-2.612,2.6a22.852,22.852,0,0,0-2.325,2.985,6.183,6.183,0,0,0-.774,1.439c-.546,1.624.354,3.632,1.077,5.185" transform="translate(-99.144 -31.085)" fill="none" stroke="#bbcede" stroke-miterlimit="10" stroke-width="2"/>
        <path id="패스_191" data-name="패스 191" d="M128.725,116.516c-2.562,6.535-3.38,13.614-3.9,20.613-.961,13.034-1.6,27.139,1.938,40.109" transform="translate(-97.483 -31.254)" fill="none" stroke="#bbcede" stroke-miterlimit="10" stroke-width="2"/>
        <path id="패스_192" data-name="패스 192" d="M178.671,137.717c4.656,1.664,8.22,5.375,11.855,8.725,6.711,6.185,14.314,11.544,22.849,14.773" transform="translate(-118.203 -39.3)" fill="none" stroke="#bbcede" stroke-miterlimit="10" stroke-width="2"/>
        <path id="패스_193" data-name="패스 193" d="M253.764,185.239a81.447,81.447,0,0,0,8.19,3.559" transform="translate(-146.702 -57.335)" fill="none" stroke="#bbcede" stroke-miterlimit="10" stroke-width="2"/>
        <path id="패스_194" data-name="패스 194" d="M177.4,116.96c-5.56.644-12.58-.179-17.5-2.854a10.431,10.431,0,0,1-3.875-3.215,10.156,10.156,0,0,1-1.359-3.864c-1.215-6.908.652-14.082,3.941-20.277A46.461,46.461,0,0,1,166.1,76.4a25.335,25.335,0,0,1,8.99-6.407,13.375,13.375,0,0,1,10.8.249,17.717,17.717,0,0,1,3.377,2.425c6.2,5.37,11.04,12.092,16.552,18.159,3.68,4.05,10.919,10.735,10.919,10.735,2.974,3.121,6.126,6.172,8.9,9.476,3.345,3.99,6.054,7.87,9.562,11.718l2.88,1.567c2.594,1.2,4.043,1.394,6.636,2.594a80.864,80.864,0,0,1,18.849,11.622c6.055,5.2,10.411,12.056,15.726,18.009,2.3,2.574,7.1,8.605,7.1,8.605,3.1,3.292,6.545,6.773,11.014,7.448,1.593.241,3.218.1,4.822.246a6.364,6.364,0,0,1,4.33,1.856c1.366,1.584,1.319,3.89,1.541,5.97a19.294,19.294,0,0,0,3.306,8.89,5.711,5.711,0,0,1,.84,1.463c.183.574.151,1.2.3,1.78.707,2.856,4.932,3.393,6.128,6.081a5.022,5.022,0,0,0,.655,1.369c.371.419,1.027.723.987,1.281a6.293,6.293,0,0,0,.058,1.533,11.9,11.9,0,0,1,1.649,3.015c.292,1.154.153,2.459-.918,2.977a1.924,1.924,0,0,1-1.242.328c-1.864-.259-3.626-.016-5.467-.463a19.936,19.936,0,0,1-7.4-3.828c-1.964-1.572-3.492-3.715-5.714-4.894a20.489,20.489,0,0,1-4.472-3.742c-3.93-4.322-9.383-10.606-9.383-10.606-3.7-4.107-20.344-17.437-22.615-18.776-6.871-4.051-12.739-9.668-19.729-13.51-3.544-1.948-7.167-2.867-11.006-4.158-1.948-.655-4.066-1.808-6.026-2.417" transform="translate(-108.952 -13.213)" fill="none" stroke="#bbcede" stroke-miterlimit="10" stroke-width="2"/>
        <path id="패스_195" data-name="패스 195" d="M130.79,96.341c2.193-5.87,3.772-12.429,6.652-17.994s6.738-10.772,11.951-14.25,11.918-5.043,17.9-3.183a12.1,12.1,0,0,1,3.38,1.595,18.56,18.56,0,0,1,3.289,3.246" transform="translate(-100.032 -9.853)" fill="none" stroke="#bbcede" stroke-miterlimit="10" stroke-width="2"/>
        <path id="패스_196" data-name="패스 196" d="M178.231,59.952c2.9-.387,6.392-1.055,9.243-.388a21.09,21.09,0,0,1,6.228,2.883,30.442,30.442,0,0,1,5.643,4.291,36.286,36.286,0,0,1,2.457,2.848c4.694,5.857,9.012,11.828,13.418,17.9" transform="translate(-118.036 -9.533)" fill="none" stroke="#bbcede" stroke-miterlimit="10" stroke-width="2"/>
        <path id="패스_197" data-name="패스 197" d="M167.926,52.766l.835-3.074a11.391,11.391,0,0,1,1.15-3.048,10.012,10.012,0,0,1,3.084-2.878,16.778,16.778,0,0,0,2.542-1.9,18.944,18.944,0,0,0,1.34-1.579c.614-.759,1.271-1.482,1.927-2.205a3.443,3.443,0,0,1,2.548-1.5,3.017,3.017,0,0,1,1.6.787.579.579,0,0,1,.246.333.594.594,0,0,1-.2.44l-4.6,5.329" transform="translate(-114.126 -0.917)" fill="none" stroke="#bbcede" stroke-miterlimit="10" stroke-width="2"/>
        <path id="패스_198" data-name="패스 198" d="M192.535,36.785a4.415,4.415,0,0,1,2.934-2.242c.341-.026.682.065,1.023.038.625-.047,1.2-.482,1.822-.414.887.1,1.407,1.14,2.279,1.335a8.471,8.471,0,0,1,.909.126,1.327,1.327,0,0,1,.8,1.121,3.578,3.578,0,0,1-.2,1.428,23.878,23.878,0,0,1-4.492,8.652c-.826.985-2.139,2.719-2.148,4.005" transform="translate(-123.465)" fill="none" stroke="#bbcede" stroke-miterlimit="10" stroke-width="2"/>
        <path id="패스_199" data-name="패스 199" d="M188.172,49.029a39.818,39.818,0,0,1,5.084-9.96,3.835,3.835,0,0,0,.717-1.363,1.231,1.231,0,0,0-.517-1.348,1.477,1.477,0,0,0-1.156.021,7.034,7.034,0,0,0-3.4,3.333,15,15,0,0,1-2.771,3.971c-1.111.961-2.56,1.48-3.626,2.489a5.228,5.228,0,0,0-1.5,2.646" transform="translate(-119.086 -0.793)" fill="none" stroke="#bbcede" stroke-miterlimit="10" stroke-width="2"/>
        <path id="패스_200" data-name="패스 200" d="M192.834,148.234a3.89,3.89,0,0,0-1.166,3.005,9.408,9.408,0,0,0,.937,3.068l2,4.6c.285.655.571,1.312.791,1.992.405,1.256.581,2.585,1.093,3.8.4.951.993,1.808,1.428,2.743a19.678,19.678,0,0,1,.9,2.565q.707,2.315,1.522,4.6a3.842,3.842,0,0,0,1.013,1.749" transform="translate(-123.132 -43.291)" fill="none" stroke="#bbcede" stroke-miterlimit="10" stroke-width="2"/>
        <path id="패스_201" data-name="패스 201" d="M-128.422,1003.65,99.9,939.107l4.268,1.18,19.21,38.572-2,3.379-251.613,71.42" transform="translate(-0.969 -343.432)" fill="none" stroke="#bbcede" stroke-linecap="round" stroke-linejoin="round" stroke-width="2"/>
        <path id="패스_202" data-name="패스 202" d="M-128.422,752.74,40.211,705.2l1.211-3.028L24.464,666.133H21.436l-151.678,39.972" transform="translate(-0.969 -239.837)" fill="none" stroke="#bbcede" stroke-linecap="round" stroke-linejoin="round" stroke-width="2"/>
      </g>
      <g id="그룹_8" data-name="그룹 8" transform="translate(73 39)">
        <g transform="matrix(1, 0, 0, 1, -73, -39)" filter="url(#사각형_6)">
          <rect id="사각형_6-2" data-name="사각형 6" width="840" height="569" rx="8" transform="translate(220 116)" fill="none" opacity="0.5"/>
        </g>
        <g id="그룹_7" data-name="그룹 7" transform="translate(456 644)">
          <ellipse id="타원_38" data-name="타원 38" cx="18.657" cy="19.297" rx="18.657" ry="19.297" transform="translate(0.719 0.719)" fill="#0092e5" stroke="#8ad1f5" stroke-miterlimit="10" stroke-width="0.216"/>
          <path id="패스_2" data-name="패스 2" d="M84.378,97.1V89.725l2.25-9.125h4.844L87.878,95.413l1.375,1.844H84.5l-.125-.156Zm0-10.781L85.753,80.6H84.378Zm-6.25-5.281L79.5,82.475,78.128,88.1V81.038Zm6.25-.438H78.566l1.781,2.125-2.219,8.906v5.625h5.594L82.16,95.382l2.219-9.063V80.6Zm0,9.125V97.1l-1.406-1.719ZM73.222,80.6h4.469l.438.438V88.1l-2.25,9.156h-4.75l3.531-14.782L73.222,80.6Zm4.906,11.032-1.406,5.625h1.406Z" transform="translate(-62.128 -68.961)" fill="#fff" fill-rule="evenodd"/>
          <path id="패스_3" data-name="패스 3" d="M76.45,67.946c7.375,0,13.375,6.3,13.375,14.009s-6,13.976-13.375,13.976v.914c7.844,0,14.25-6.694,14.25-14.891s-6.406-14.89-14.25-14.89Zm0,0h0v-.882h0c-7.844,0-14.25,6.694-14.25,14.89s6.406,14.891,14.25,14.891h0v-.914h0c-7.375,0-13.407-6.27-13.407-13.976S69.075,67.946,76.45,67.946Z" transform="translate(-57.075 -61.939)" fill="#fff" fill-rule="evenodd"/>
          <path id="패스_4" data-name="패스 4" d="M69.767,95.256c10.656,0,19.344-8.975,19.344-19.984,0-11.041-8.688-20.016-19.344-20.016-10.688,0-19.375,8.975-19.375,20.016C50.392,86.281,59.08,95.256,69.767,95.256Z" transform="translate(-50.392 -55.256)" fill="none" stroke="#1a1311" stroke-miterlimit="10" stroke-width="0.216" fill-rule="evenodd"/>
          <path id="패스_5" data-name="패스 5" d="M88.978,68.584V67.99l.375-.281-.125-.187-.25.188v-.688l.875-.625.344.438-.563.406.125.156.594-.438.344.469-1.688,1.219-.031-.063Zm0-1.844.625-.469-.625-.844Zm0-1.313V66.74l-.469.313v-.688l.344-.25-.187-.281-.156.094V65.24l.219-.156.25.344Zm0,1.594-.469.344v.344l.156.219.313-.219v-.688Zm0,.969v.594l-.281-.406.281-.187Zm-.469,1.031a.567.567,0,0,0,.156-.563,1.149,1.149,0,0,0-.156-.5Zm0-3.781v.688l-.375.281.219.281.156-.125v.688l-.25.188-.219-.313V65.584l.469-.344Zm0,2.125v.344l-.156-.219.156-.125Zm0,.594a1.865,1.865,0,0,0-.281-.469,1.359,1.359,0,0,0-.187-.219v.781a1.526,1.526,0,0,0,.094.219c.031.125.031.219-.031.281h-.062v.594a.542.542,0,0,0,.438-.094l.031-.031Zm-.469-2.375v1.344l-.656-.875.656-.469Zm0,1.688a1.688,1.688,0,0,0-.594-.5.629.629,0,0,0-.625.031.669.669,0,0,0-.219.563,2.093,2.093,0,0,0,.469.969,2.144,2.144,0,0,0,.781.75c.063.031.125.031.188.062v-.594c-.063.031-.125,0-.219-.063a2.464,2.464,0,0,1-.406-.406,1.491,1.491,0,0,1-.25-.5c-.031-.156-.031-.25.031-.281.063-.062.156-.031.281.063a1.2,1.2,0,0,1,.375.406,1.085,1.085,0,0,1,.188.281v-.781Zm-3.125-3V62.9l.125.094.156-.25-.281-.156V61.99l.531.344.188-.281.469.281Zm0-2.281v.594l-.125-.094c0,.031-.031.063-.031.094-.031.031-.031.063-.062.063v.063c-.031,0-.031,0-.031.031V61.583a1.675,1.675,0,0,1,.156.344l.094.062Zm0,.906v1.375l-.125.187-.125-.094v-.781l.094-.188-.094-.063V62.74l.25.156Zm-.25,1.938V64.8h0Zm0-3.25V62.74h0v.594l-.469-.281a1,1,0,0,1-.438.031h0v-.5a.4.4,0,0,0,.187-.031.44.44,0,0,0,.344-.531.528.528,0,0,0-.219-.313.287.287,0,0,0-.312-.031v-.531a.858.858,0,0,1,.594.156,2.818,2.818,0,0,1,.313.281Zm0,2v.781l-.344-.219.344-.563Zm0,1.219-.906-.563v.594l.656.406.25-.406Zm-.906-3.656v.531h-.031a.388.388,0,0,0-.25.188.484.484,0,0,0-.094.344.528.528,0,0,0,.219.313c.031.031.094.031.156.063v.5a1.232,1.232,0,0,1-.438-.156,1.024,1.024,0,0,1-.469-.625.826.826,0,0,1,.125-.719.944.944,0,0,1,.594-.438Zm0,3.094-.844-.531.375-.563-.5-.312-.625,1,1.594,1V64.24ZM79.04,62.49V61.24a2.748,2.748,0,0,1,.313.188.685.685,0,0,1,.25.594.613.613,0,0,1-.438.438c-.031.031-.063.031-.125.031Zm0-1.75.156.031-.094.406.594.094L80.04,59.3l-.594-.094-.031.313-.375-.062v.5l.281.063-.062.25-.219-.031Zm0-1.281v.5l-.219-.031v.156c0,.031-.031.031-.031.063v.031l.25.063v.5l-.563-.094a1.524,1.524,0,0,1-.219.094V59.083c.031.031.063.031.094.063a.738.738,0,0,1,.281.25l.406.063Zm0,1.781v1.25a2.056,2.056,0,0,1-.781.031v-.469a3.042,3.042,0,0,0,.5.031c.125-.031.219-.094.219-.188a.248.248,0,0,0-.156-.219,1.048,1.048,0,0,0-.5-.187h-.063v-.469a.188.188,0,0,0,.125.031A4.449,4.449,0,0,1,79.04,61.24Zm-.781-2.156V60.74a.239.239,0,0,1-.156.062.865.865,0,0,1-.281.031v-.5a.243.243,0,0,0,.25-.062.738.738,0,0,0,.188-.281.514.514,0,0,0-.062-.313.314.314,0,0,0-.313-.188.109.109,0,0,0-.062-.031V58.99h.156l.281.094Zm0,1.938v.469a2.214,2.214,0,0,0-.437-.031V60.99c.125,0,.281.031.438.031Zm0,1.031v.469a.188.188,0,0,1-.125-.031.925.925,0,0,1-.313-.063v-.469a4.076,4.076,0,0,0,.406.094Zm-.437-3.063v.469a.355.355,0,0,0-.25.094.432.432,0,0,0-.156.281.363.363,0,0,0,.063.313q.047.141.281.188h.063v.5a.282.282,0,0,1-.156-.031.889.889,0,0,1-.656-.375.793.793,0,0,1-.156-.688.9.9,0,0,1,.969-.75Zm0,2v.469c0,.031-.031.031-.063.031-.125.031-.219.094-.219.156,0,.094.031.156.156.25a.237.237,0,0,1,.125.063v.469a1.607,1.607,0,0,1-.656-.313c-.188-.187-.281-.375-.219-.563a.564.564,0,0,1,.406-.469,1.77,1.77,0,0,1,.469-.094Zm-5.75,1V60.8l1.813-.313.063.5-1.375.25L72.79,62.4l-.625.125-.094-.531Zm0-1.969v-.969l.125-.031.031.219a.745.745,0,0,0,.469.5,2.242,2.242,0,0,0,.906.188l-.25.469a2.437,2.437,0,0,1-.688-.094C72.478,60.208,72.29,60.115,72.072,60.021Zm0-.969v.969a.031.031,0,0,0-.031-.031,1.629,1.629,0,0,1-.437.5,3.876,3.876,0,0,1-.625.313l-.406-.344a3.113,3.113,0,0,0,.75-.438.663.663,0,0,0,.281-.688l-.031-.187.5-.094Zm0,1.75-1.594.281.094.5,1.406-.25.094.656V60.8Zm-5.688,4.219V63.927l.219.375L68.29,63.24l.25.406-2.156,1.375Zm0-1.313a1.253,1.253,0,0,0,.438-.469.534.534,0,0,0,0-.531.473.473,0,0,0-.438-.219v1.219Zm0-1.5V61.8l.156.281-.156.125Zm0-.781L67.54,63.3l.5-.312-.531-.844.375-.219L67.6,61.49l-.375.219-.531-.844-.313.188Zm0-.375v.375l-.094-.156v-.156l.094-.062Zm0,.75v.406l-.094.062V61.74l.031-.031.063.094Zm0,.688v1.219c-.031.031-.062.031-.094.063h0v-.563h0a.147.147,0,0,0,.031-.188.031.031,0,0,0-.031-.031v-.5h.094Zm0,1.438v1.094h-.031l-.062-.094v-1l.062-.063Zm-.094-2.813v.156l-.094-.125.094-.031Zm0,.625v.531l-.312.188v-.531l.313-.188Zm0,.75v.5a.142.142,0,0,0-.156,0c-.062,0-.094.031-.156.062v-.5a.924.924,0,0,1,.313-.062Zm0,.719v.563a2.894,2.894,0,0,1-.312.156v-.5c.031,0,.062-.031.094-.031a1.36,1.36,0,0,0,.219-.187Zm0,.719v1l-.312-.5v-.313Zm-.312-2v.531l-.781.469V62.4l.781-.469Zm0,.625c-.094.063-.219.094-.313.156a1.279,1.279,0,0,0-.469.438v.719a.53.53,0,0,0,.406.125,1.569,1.569,0,0,0,.375-.062v-.5a.683.683,0,0,0-.156.094c-.094,0-.156,0-.187-.063a.147.147,0,0,1,.031-.188,1.359,1.359,0,0,1,.219-.187.115.115,0,0,1,.094-.031v-.5Zm0,1.563v.313l-.156-.219.156-.094ZM65.2,62.271l.625-.406L65.6,61.49l-.406.25Zm-2.438,5.5-.406-.281c-.031.031-.063.125-.156.25a4.187,4.187,0,0,1-.188.375l-.125.125-.125-.094v.719l.188.125.313-.406a2.945,2.945,0,0,0,.344-.531.954.954,0,0,1,.156-.281ZM65.2,61.74v.531l-.406.25-.219-.375.625-.406Zm0,.656-.75.469.25.375.5-.313V62.4Zm0,.75v.719c-.031-.031-.062-.063-.062-.094a.534.534,0,0,1,0-.531c.031-.031.031-.063.063-.094Zm-3.438,3.719v-.688l.281.219.156-.219-.438-.313v-.688l2.531,1.844-.344.438-1.281-.938-.156.219,1.156.844-.313.438Zm0,1.281-.969-.719.438-.563-.406-.281-.781,1.031,1.719,1.25v-.719Zm0-2.969v.688l-.594-.437.344-.438.25.188Zm0,1v.688l-1-.719.344-.438Z" transform="translate(-55.852 -57.365)" fill="#fff"/>
          <g id="그룹_6" data-name="그룹 6" transform="translate(5.938 30.625)">
            <path id="패스_6" data-name="패스 6" d="M66.447,127.77l.25-2.75c.313,0,.656,0,1.031-.031.406,0,.781-.031,1.156-.063l-.656-.625c-.375.031-.688.063-1,.063s-.656.031-1,.031l1-1.031-.531-.5-2.625,2.656.563.5.938-.969.406-.031-.187,2.125.656.625Zm5.125.094a.639.639,0,0,0-.344,0,.488.488,0,0,0-.25.25.436.436,0,0,0,0,.344c.063.125.125.219.25.25a.4.4,0,0,0,.375,0,.64.64,0,0,0,.25-.25.443.443,0,0,0-.031-.344c-.031-.125-.125-.188-.25-.25Zm6.438,1.375a1.935,1.935,0,0,0-.594-.219,4.088,4.088,0,0,1-.469-.156.738.738,0,0,1-.281-.188.3.3,0,0,1-.125-.281c0-.094.063-.156.156-.25a.649.649,0,0,1,.469-.125.683.683,0,0,1,.5.219.768.768,0,0,1,.156.469l.719.031a1.508,1.508,0,0,0-.25-.875,1.668,1.668,0,0,0-2.125-.219,1.073,1.073,0,0,0-.406.688.824.824,0,0,0,.156.625,1.415,1.415,0,0,0,.563.469,4.811,4.811,0,0,0,.531.156,1.381,1.381,0,0,1,.5.188.843.843,0,0,1,.25.219.392.392,0,0,1,.031.281.677.677,0,0,1-.25.281.957.957,0,0,1-.469.094.792.792,0,0,1-.563-.25.627.627,0,0,1-.219-.531l-.75-.062a1.306,1.306,0,0,0,.375,1,1.477,1.477,0,0,0,1.094.531,1.891,1.891,0,0,0,1.094-.281,1.391,1.391,0,0,0,.469-.75.88.88,0,0,0-.125-.625,1.175,1.175,0,0,0-.438-.438Zm10.063-5.188-.438-.531-2.063,1.656,2.344,2.844.594-.438-.969-1.156,1.313-1.063-.438-.5L87.1,125.9l-.531-.656Z" transform="translate(-64.072 -122.864)" fill="#fff"/>
            <path id="패스_7" data-name="패스 7" d="M106.3,134.929a.357.357,0,0,0-.25.219.523.523,0,0,0-.031.375.64.64,0,0,0,.25.25.338.338,0,0,0,.344,0,.5.5,0,0,0,.281-.219.639.639,0,0,0,0-.344.444.444,0,0,0-.25-.281A.639.639,0,0,0,106.3,134.929Z" transform="translate(-87.802 -129.679)" fill="#fff"/>
          </g>
          <path id="패스_8" data-name="패스 8" d="M181.723,95.325V93.146h1.906v2.178Zm0-3.8V80.76h1.563V91.521Zm0-14.467V74.875h1.156v2.178Zm0-3.771V62.456h.813V66.78h1.625v2.146h-1.625v4.356Zm0-10.826V73.282h-1.188V62.456Zm0,12.419v2.178h-5.594V74.875Zm0,5.884V91.521h-.437V80.76Zm0,12.387h-5.406V90.22h-.187v5.1h5.594V93.146Zm-5.594-4.031V87a1.336,1.336,0,0,0,1.156-.585,2.5,2.5,0,0,0,0-2.731,1.336,1.336,0,0,0-1.156-.585V80.987a3.212,3.212,0,0,1,2.594,1.2,4.286,4.286,0,0,1,1,2.861,4.347,4.347,0,0,1-1,2.861,3.212,3.212,0,0,1-2.594,1.2Zm0-18.5V68.471c.438-.033,1-.065,1.688-.163a14.857,14.857,0,0,0,2.031-.358V70.1c-.469.1-1.219.228-2.219.358a12.39,12.39,0,0,1-1.5.163Zm0-5.2V63.2h2.75v2.211Zm-9.844,7.608a9.635,9.635,0,0,1-1.563-1.463v2.893a2.945,2.945,0,0,0,.375.293l1.188-1.723Zm9.844-9.818v2.211h-1.563v3.056h1.563v2.146a9.96,9.96,0,0,1-1.375.065h-2.219V63.2Zm0,11.671v2.178h-2.281V71.884h2v2.991Zm0,6.112V83.1h0a1.283,1.283,0,0,0-1.125.585,2.35,2.35,0,0,0,0,2.731,1.283,1.283,0,0,0,1.125.585h0v2.113h0a3.152,3.152,0,0,1-2.563-1.2,4.213,4.213,0,0,1-1.031-2.861,4.156,4.156,0,0,1,1.031-2.861,3.152,3.152,0,0,1,2.563-1.2Zm0,9.233v5.1h-1.813v-5.1Zm-11.407,5.267V93.439h2.438v-.91h-2.438V90.513h2.438V89.278h2.031v6.21Zm0-6.957V81.247h.531v2.341h1.969V80.76h2.031v8.063h-2.031V85.766h-1.969V88.53ZM170.5,70.681V68.308h-1.688V62.456h-2V77.379h2v-6.7Zm-5.781.878c-.219-.26-.406-.553-.625-.845a6.92,6.92,0,0,1-.906-3.8V63.236h-1.125v8.225a.562.562,0,0,0,.063-.163,5.2,5.2,0,0,0,1.313,1.983c.469.455.875.845,1.281,1.17V71.559Zm0,9.688V88.53h-2.656V86.417h1.188v-1.2h-1.188V83.068h1.188V81.247Zm0,9.266v2.016h-2.438v.91h2.438v2.048h-2.656v-6.21h.219v1.235Zm-2.656-27.277h-1.031V66.91a7.733,7.733,0,0,1-.813,3.739,9.086,9.086,0,0,1-2.406,2.7l1.469,1.626c.5-.488,1.031-1.008,1.594-1.626a5.76,5.76,0,0,0,1.188-1.886V63.236Zm0,19.832v2.146H160.91v1.2h1.156V88.53h-3.188V81.247h2.031v1.821Zm0,6.21v6.21h-1.813v-6.21Z" transform="translate(-111.017 -59.331)" fill="#fff"/>
          <path id="패스_9" data-name="패스 9" d="M375.574,84.416v-3.75a1.025,1.025,0,0,0,.281-.688,1.043,1.043,0,0,0-.281-.719V75.478a7.877,7.877,0,0,1,2.063.875,4.24,4.24,0,0,1,2.219,3.594,4.121,4.121,0,0,1-2.188,3.563,7.563,7.563,0,0,1-2.094.906Zm0-14.875V65.978h.688V60.947h3.531V75.2h-3.531V69.541Zm0-3.563v3.563h-.688v4.688h-3.531V61.353h3.531v4.625Zm0,9.5V79.26a2.65,2.65,0,0,0-1.031-.625,10.579,10.579,0,0,0-3.531-.469,10.912,10.912,0,0,0-3.563.469c-.906.281-1.344.719-1.344,1.281,0,.531.438.969,1.344,1.344a9.232,9.232,0,0,0,3.563.563,9.024,9.024,0,0,0,3.531-.531,2.65,2.65,0,0,0,1.031-.625v3.75a17.537,17.537,0,0,1-4.563.5,14.262,14.262,0,0,1-5.875-.969v-8a14.305,14.305,0,0,1,5.875-1,17.423,17.423,0,0,1,4.563.531ZM365.137,73.7V70.259h1.094V65.853h-1.094V62.416h4.719V73.7Zm0-11.282v3.438h-1.094v4.406h1.094V73.7h-4.719V62.416Zm0,13.532v8a6.716,6.716,0,0,1-.813-.437,4.151,4.151,0,0,1-2.156-3.563,4.2,4.2,0,0,1,2.188-3.594c.25-.125.5-.281.781-.406Zm-14.813,8.188V80.7h5.656v3.438Zm0-12.094V68.6h1.469V66.759h-1.469V63.291h1.469V60.947h3.688V78.135h-3.688V72.041Zm0-8.75v3.469h-1.5q.047.234.094.563a3.771,3.771,0,0,1,.031.594v.344a1.325,1.325,0,0,0-.062.344h1.438v3.438h-2.781a1.73,1.73,0,0,1-.188.25v-9Zm0,17.407v3.438h-2.969V80.7Zm-2.969-17.407v9a7.049,7.049,0,0,1-2,1.563,6.426,6.426,0,0,1-2.906.688V71.134a2.5,2.5,0,0,0,2.094-.969,3.614,3.614,0,0,0,.75-2.25,3.526,3.526,0,0,0-.75-2.219,2.5,2.5,0,0,0-2.094-.969V61.322a6.676,6.676,0,0,1,2.625.531,6.826,6.826,0,0,1,2.031,1.438Zm0,17.407v3.438h-4.906V75.978h.406V80.7Zm-4.906-19.375v3.406h0a2.457,2.457,0,0,0-2.094.969,3.526,3.526,0,0,0-.75,2.219,3.614,3.614,0,0,0,.75,2.25,2.457,2.457,0,0,0,2.094.969h0v3.406h0a6.031,6.031,0,0,1-4.688-2,6.723,6.723,0,0,1,0-9.25,6.111,6.111,0,0,1,4.688-1.969Zm0,14.657v8.156H339.2V75.978ZM326.042,84.7V81.385a.936.936,0,0,0,.312-.125c.844-.375,1.25-.813,1.25-1.344,0-.563-.406-1.031-1.25-1.438a3.238,3.238,0,0,0-.312-.125V75.041a8.271,8.271,0,0,1,3.375,1.219,4.236,4.236,0,0,1,2.156,3.594,4.285,4.285,0,0,1-2.156,3.625,9.289,9.289,0,0,1-3.375,1.219Zm0-12.875V68.384h1.625V66.666h-1.625V63.228h1.625V60.947h3.656V74.728h-3.656V71.822Zm0-8.594v3.438h-1.594c.031.156.063.313.094.5,0,.188.031.375.031.531,0,.125-.031.25-.031.344-.031.125-.031.219-.062.344h1.563v3.438h-3.031a6.611,6.611,0,0,1-2.063,1.625,6.214,6.214,0,0,1-2.75.594V70.728a2.339,2.339,0,0,0,2-.938,3.364,3.364,0,0,0,0-4.156,2.339,2.339,0,0,0-2-.938V61.322a6.224,6.224,0,0,1,2.531.531,6.51,6.51,0,0,1,2,1.375Zm0,11.813v3.313a10.424,10.424,0,0,0-6.469.094c-.813.406-1.25.875-1.25,1.406s.438,1,1.25,1.406a10.754,10.754,0,0,0,6.469.125V84.7a18.314,18.314,0,0,1-3.063.219,14.961,14.961,0,0,1-4.781-.656V75.447a14.962,14.962,0,0,1,4.781-.656A18.125,18.125,0,0,1,326.042,75.041ZM318.2,61.322V64.7h0a2.339,2.339,0,0,0-2,.938,3.364,3.364,0,0,0,0,4.156,2.339,2.339,0,0,0,2,.938h0v3.313h0a5.9,5.9,0,0,1-4.563-1.906,6.338,6.338,0,0,1,0-8.875,5.925,5.925,0,0,1,4.563-1.938Zm0,14.125V84.26a7.135,7.135,0,0,1-1.625-.781,4.285,4.285,0,0,1-2.156-3.625,4.236,4.236,0,0,1,2.156-3.594,6.083,6.083,0,0,1,1.625-.813Zm-37.751,8.688V80.853H282.6v3.281Zm0-5.719V60.947h1.531v7.031h2.813v3.563h-2.813v6.875Zm27.094-9.5a16.69,16.69,0,0,1-5.406-2.406,4.7,4.7,0,0,1-2.375-4.031V61.1H295.7v1.375q.188,2.578-2.531,4.219a17.722,17.722,0,0,1-5.25,2.219l2.156,2.781a14.935,14.935,0,0,0,4.281-1.5,7.948,7.948,0,0,0,3.344-2.844,21.834,21.834,0,0,0,3.625,2.875,10.286,10.286,0,0,0,4.063,1.469l2.156-2.781Zm1.063,7.531V73.01H286.791v3.438h9v8.219h3.844V76.447Zm-28.157-15.5V78.416h-2.125V60.947Zm0,19.907v3.281H270.072V80.853Zm-10.375-4.313V73.51h.063a6.229,6.229,0,0,0,1.75-.25c.563-.188.844-.5.844-.906,0-.469-.281-.781-.844-.969a5.27,5.27,0,0,0-1.75-.281h-.062v-3h0a8.286,8.286,0,0,1,4.594,1.188,3.547,3.547,0,0,1,1.781,3.063,3.492,3.492,0,0,1-1.813,3,8.177,8.177,0,0,1-4.563,1.188Zm0-8.875V64.572h6.969v3.094Zm0-3.938v-3h3.813v3ZM249.353,79.135V75.822c-.406.063-1.063.156-1.969.313a19.348,19.348,0,0,1-2.563.219H243.7V66.947h4.531V63.509H240.04V79.791h3.188a23.008,23.008,0,0,0,4.063-.281c1.031-.188,1.688-.313,2.063-.375Zm20.719-18.407v3h-3.813v-3Zm0,3.844v3.094H263.2V64.572Zm0,3.531v3a5.887,5.887,0,0,0-1.781.281q-.844.281-.844.938,0,.7.844.938a7,7,0,0,0,1.781.25v3.031h0a8.027,8.027,0,0,1-4.469-1.188,3.535,3.535,0,0,1-1.875-3,3.481,3.481,0,0,1,1.875-3.063,8.292,8.292,0,0,1,4.469-1.188Zm0,12.75v3.281h-4V77.447h3.875v3.406Zm-11.125,3.813V60.947h-3.531v8.688H253.79V61.478h-3.531V83.6h3.531V73.635h1.625V84.666Z" transform="translate(-156.999 -58.353)" fill="#fff"/>
          <path id="패스_10" data-name="패스 10" d="M405.312,128.8v-.969a1.062,1.062,0,0,0,.937-.531,2.677,2.677,0,0,0,0-2.625,1.062,1.062,0,0,0-.937-.531v-.969a2.017,2.017,0,0,1,1.656.781,3.051,3.051,0,0,1,.656,2.031,3.109,3.109,0,0,1-.656,2.031,1.935,1.935,0,0,1-1.656.781Zm7.219-.156V123.3h-.969v3.625l-1.875-3.625h-1.094v5.375h.969v-3.656l1.844,3.656Zm-7.219-5.469v.969h0a1.062,1.062,0,0,0-.938.531,2.913,2.913,0,0,0,0,2.625,1.062,1.062,0,0,0,.938.531h0v.969h0a1.974,1.974,0,0,1-1.656-.781,3.093,3.093,0,0,1-.625-2.031,3.037,3.037,0,0,1,.625-2.031,1.974,1.974,0,0,1,1.656-.781Zm-9.281,5.5v0Zm0-4.406h1.5l-.031,4.406h1V124.3H400v-.969h-3.969v.938Zm6,4.406V123.3h-.969v5.344Zm-6-5.344v.938H396v-.938Zm0,5.281-1.906-5.281h-.531v1.313l.656,1.875h-.656v1h1l.437,1.156h1Zm-2.438-5.281v1.344l-.656,1.844h.656v1h-1.031l-.406,1.156h-1l1.906-5.344Zm-5.344,3.719v-1.375h.062a.873.873,0,0,0,.563-.187.642.642,0,0,0,.25-.563.461.461,0,0,0-.25-.469,1.08,1.08,0,0,0-.563-.156h-.062v-.969h.187a1.7,1.7,0,0,1,1.219.469,1.453,1.453,0,0,1,.5,1.125,1.784,1.784,0,0,1-.281,1,1.756,1.756,0,0,1-.75.625l1.406,2.125h-1.219Zm0-3.719v.969h-.875v1.375h.875v1.375l-.281-.406h-.594v2.031l-.969-.031V123.33Zm-9.719,5.344v-1a1.131,1.131,0,0,0,.719-.469,2.168,2.168,0,0,0,0-2.438,1.09,1.09,0,0,0-.719-.438v-1a1.958,1.958,0,0,1,1.5.75,3.036,3.036,0,0,1,.625,1.906,3.1,3.1,0,0,1-.625,1.906,2.093,2.093,0,0,1-1.5.781Zm6.75,0v-1h-2.594v-1.25h2.406v-.969h-2.406V124.3h2.563l-.031-.969h-3.531v5.313Zm-6.75-5.344v1a.865.865,0,0,0-.281-.031h-.781v3.406h.781c.094,0,.188-.031.281-.031v1H376.5V123.33h2.031Zm-58.564,4.188v-1h.656l-.656-1.875V123.33h.531l1.906,5.344h-1l-.438-1.156Zm9.156-1.719a3.131,3.131,0,0,0-.781-.312,2.388,2.388,0,0,1-.656-.188,1.171,1.171,0,0,1-.375-.219.55.55,0,0,1-.187-.406.672.672,0,0,1,.187-.406.83.83,0,0,1,.625-.187.73.73,0,0,1,.656.281.851.851,0,0,1,.219.625h.938a2.087,2.087,0,0,0-.375-1.219,1.639,1.639,0,0,0-1.469-.688,1.815,1.815,0,0,0-1.344.5,1.914,1.914,0,0,0-.469,1.031,1.331,1.331,0,0,0,.25.938,1.817,1.817,0,0,0,.75.594,3.4,3.4,0,0,0,.75.219,2.7,2.7,0,0,1,.656.219.886.886,0,0,1,.312.281.478.478,0,0,1,.063.406.675.675,0,0,1-.281.438.933.933,0,0,1-.625.188,1.068,1.068,0,0,1-1.094-1.094H325.9a2.126,2.126,0,0,0,.563,1.406,1.9,1.9,0,0,0,1.5.688,1.946,1.946,0,0,0,1.375-.5,1.7,1.7,0,0,0,.562-1.094,1.445,1.445,0,0,0-.187-.906,1.361,1.361,0,0,0-.594-.594Zm7.25-2.5h-.938l-.75,3.625-.75-3.625H332.9l-.75,3.625-.75-3.625H330.5l1.125,5.375h1.063l.75-3.469.719,3.469h1.063l1.156-5.375Zm1.781,5.375V123.3h-.969v5.344l.969.031Zm6,0V123.3H343.03l-1.219,3.938-1.25-3.938h-1.094v5.375l.938-.031v-2.875l.875,2.906h1.063l.844-2.969v2.969Zm6,0V123.3H349l-1.219,3.938-1.25-3.938h-1.094v5.375l.969-.031v-2.875l.844,2.906h1.063l.875-2.969v2.969Zm2.25,0V123.3h-.969v5.344l.969.031Zm5.219-.031V123.3h-.969v3.625l-1.844-3.625h-1.125v5.375h1v-3.656l1.844,3.656,1.094-.031Zm5.5.031V125.8h-2.156v.906h1.156a2.277,2.277,0,0,1-.375.719.831.831,0,0,1-.781.406A1.151,1.151,0,0,1,360,127.3a2.447,2.447,0,0,1-.312-1.344,2.225,2.225,0,0,1,.313-1.281,1.151,1.151,0,0,1,.969-.531,1.035,1.035,0,0,1,.75.313,1.464,1.464,0,0,1,.344.594h1.063a3.233,3.233,0,0,0-.656-1.25,2.166,2.166,0,0,0-3.188.156,3.563,3.563,0,0,0,0,4.031,2,2,0,0,0,1.656.813,1.37,1.37,0,0,0,.719-.187,1.669,1.669,0,0,0,.5-.406v.438l.969.031Zm7.563-4.375v-.969h-3.5v5.344h.969v-2.188h2.219v-.969h-2.219V124.3Zm4.719,4.375v-1H372.78v-1.25h2.438v-.969H372.78V124.3h2.563v-.969h-3.531v5.313Zm-55.439-5.344v1.344l-.656,1.844h.656v1h-1l-.438,1.156h-1l1.906-5.344ZM310,127.049v-1.375h.063a.872.872,0,0,0,.562-.187.732.732,0,0,0,.25-.563.514.514,0,0,0-.25-.469,1.079,1.079,0,0,0-.562-.156H310v-.969h.188a1.752,1.752,0,0,1,1.219.469,1.453,1.453,0,0,1,.5,1.125,1.589,1.589,0,0,1-.312,1,1.525,1.525,0,0,1-.719.625l1.406,2.125H311.06L310,127.049Zm6.688,1.625-.031-1H314.06v-1.25H316.5v-.969H314.06V124.3h2.563v-.969h-3.531v5.313ZM310,123.33v.969h-.875v1.375H310v1.375l-.281-.406h-.594v2.031l-1-.031V123.33Zm-5.125,5.469v-.969a1.139,1.139,0,0,0,.938-.531,2.678,2.678,0,0,0,0-2.625,1.139,1.139,0,0,0-.938-.531v-.969a2.06,2.06,0,0,1,1.656.781,3.213,3.213,0,0,1,.625,2.031,3.276,3.276,0,0,1-.625,2.031A1.974,1.974,0,0,1,304.872,128.8Zm-2.344-.125-2.313-3.125c.313-.313.625-.656.969-1.063s.656-.781,1-1.188H301c-.312.375-.625.719-.906,1.063-.281.313-.594.625-.937,1V123.3h-.938v5.344h.938v-1.969l.375-.406,1.812,2.406Zm2.344-5.5v.969h-.031a1.049,1.049,0,0,0-.906.531,2.678,2.678,0,0,0,0,2.625,1.049,1.049,0,0,0,.906.531h.031v.969h-.031a1.974,1.974,0,0,1-1.656-.781,3.277,3.277,0,0,1-.625-2.031,3.214,3.214,0,0,1,.625-2.031,1.974,1.974,0,0,1,1.656-.781Z" transform="translate(-189.924 -92.361)" fill="#fff"/>
        </g>
      </g>
    </g>
  </g>
</svg>
