<svg xmlns="http://www.w3.org/2000/svg" width="373.709" height="305.595" viewBox="0 0 373.709 305.595"><defs><style>.a{opacity:0.4;isolation:isolate;}.b{fill:none;stroke:#fff;stroke-linecap:round;stroke-linejoin:round;stroke-width:2px;}</style></defs><g class="a" transform="translate(-87.93 -284.171)"><path class="b" d="M262.221,605.516c-2.376.687-6.351,4.35-5.329,4.8a20.159,20.159,0,0,0,3.174,1.163c7.23,1.532,13.739,2.422,20.968,3.955l-2.549,2.1a279.732,279.732,0,0,0,47.222,3.783,13.4,13.4,0,0,0,6.286-1.077l-2.208-2.14,15.073.187" transform="translate(-40.062 -76.484)"/><path class="b" d="M369.818,625.061l-3.489.819c13.6,2.867,27.655,2.442,41.549,2l21.22-.668c.88-.028,2.071-.973,1.323-1.439-.871-.449-1.025-1.079-1.9-1.529,2.552-.644,5.015-.6,7.373-1.191,1.966-.5,1.729-3,.972-3.263" transform="translate(-66.23 -79.893)"/><path class="b" d="M463.292,631.856l4.368-.3,11.3-.775" transform="translate(-89.381 -82.516)"/><path class="b" d="M246.766,607.18c-.864.174-2.118.744-2.185,1.544-.1,1.21.841,1.722,2.088,2.09a14.585,14.585,0,0,0,4.449.744" transform="translate(-37.161 -76.881)"/><path class="b" d="M252.918,604.65" transform="translate(-39.153 -76.277)"/><path class="b" d="M266.5,602.73a41.136,41.136,0,0,1,8.183-9.525,5.855,5.855,0,0,0-1.853,4.7,11.135,11.135,0,0,0,1.595,4.926,12.235,12.235,0,0,0,3.958,4.46c1.7,1.073,3.9,1.912,5.794,1.25,1.266,1.342,3.187,1.329,5.006,1.639l6.168,1.051a1.954,1.954,0,0,1,.894.308c.254.2.4.509.633.728a2.38,2.38,0,0,0,1.721.4l5.8-.179a2.216,2.216,0,0,1,1.9.557c.188.248.261.566.432.827a2.45,2.45,0,0,0,1.9.831c2.627.253,5.287-.072,7.909.218,1.334.148,2.654.454,4,.482a5.5,5.5,0,0,0,3.764-1.143,1.675,1.675,0,0,0-.606-1.468" transform="translate(-42.396 -73.545)"/><path class="b" d="M326.531,618.467a25.8,25.8,0,0,1,4.357.158" transform="translate(-56.728 -79.569)"/><path class="b" d="M277.336,610.977c12.149,3.177,24.953,2.055,37.477,2.973" transform="translate(-44.983 -77.788)"/><path class="b" d="M337,615.492a3.976,3.976,0,0,0,1.384.088" transform="translate(-59.228 -78.866)"/><path class="b" d="M345.8,615.432c6.823.046,11.771.254,18.554-.49.231-.026,1.458-1.248,2.776-1.257s3.448.315,5.481.544" transform="translate(-61.33 -78.434)"/><path class="b" d="M277.252,585.734a65.14,65.14,0,0,1,9.1-7.317,21.016,21.016,0,0,1,6.576-2.576c1.688-.3,3.447-.091,5.11-.5,2.444-.608,4.351-2.463,6.13-4.244l8.014-8.017a4.455,4.455,0,0,1,1.185-.94,3.543,3.543,0,0,1,3.567.813,27.265,27.265,0,0,0,2.923,2.511c2.5,1.479,5.778.568,8.506,1.57a11.171,11.171,0,0,0,1.825.657c2.205.4,4.457-1.709,6.54-.882.649.258,1.166.774,1.8,1.063a5,5,0,0,0,2.243.312c2.383-.081,4.784-.593,7.133-.177s4.724,2.145,4.823,4.528a12.185,12.185,0,0,1-.541,2.989c-.6,2.8.078,5.7.837,8.458q.948,3.438,2.077,6.822c.825,2.47,2.013,5.214,4.484,6.04" transform="translate(-44.963 -66.074)"/><path class="b" d="M376.939,623.293c-.237.545,6.018,1.662,9.3,1.85,5.951.341,11.906.681,17.866.649,2.353-.013,13.948-.362,17.394-.465,2.141-.065,8.32-1.253,10.705-2.828" transform="translate(-68.762 -80.539)"/><path class="b" d="M381.54,329.818a2.569,2.569,0,0,0-1.417,2.234,5.7,5.7,0,0,0,.64,2.683c2.125,4.653,6.417,7.937,9.19,12.235.968,1.5,1.745,3.115,2.7,4.621,2.712,4.279,10.107,8.365,10.107,8.365,3.011,1.746,6.181,3.654,7.764,6.754a17.89,17.89,0,0,1,1.481,6.4,432.181,432.181,0,0,1,2.077,54.963c-.081,3.117-.195,6.233-.181,9.35.041,9.034,1.356,16.339,3.012,26.389,0,0-2.656,11.379-5.071,17.912-2.868,7.756-4.347,15.943-6.471,23.935s-4.991,15.983-10.189,22.415c-1.617,2-3.439,3.824-5.167,5.729a73.262,73.262,0,0,0-13.075,19.608" transform="translate(-68.764 -10.66)"/><path class="b" d="M382.5,329.58c.923.181,1.831-.457,2.77-.406a3.571,3.571,0,0,1,2.045,1.07c4.647,4.08,7.667,10.118,13.2,12.872" transform="translate(-70.091 -10.505)"/><path class="b" d="M381.353,314.215a56.223,56.223,0,0,1-14.185-15.594s-2.042,1.162-2.077,1.683a7.035,7.035,0,0,0,1.529,6.059l4.092,5.7c.829,1.154,1.66,2.309,2.571,3.4a29.182,29.182,0,0,0,7.1,6.14" transform="translate(-65.918 -3.211)"/><path class="b" d="M378.448,327.294c-2.942-1-8.377-4.029-11.362-5.351-1.2-.534-2.01-.789-2.093-.519-.342,1.121.393,2.724,1.37,3.891a9.081,9.081,0,0,0,2.258,1.864l6.766,4.1a3.7,3.7,0,0,0,1.907.711" transform="translate(-65.891 -8.63)"/><path class="b" d="M378.778,341.292a3.928,3.928,0,0,0,1.339,3.184c1.616,1.389,5.372.977,7.429,1.532" transform="translate(-69.201 -13.399)"/><path class="b" d="M378.78,341.292c1.618.509,3.385.28,5.042.645" transform="translate(-69.203 -13.399)"/><path class="b" d="M446.972,473.591l2.267-13.156a38.216,38.216,0,0,0,.8-7.877,61.7,61.7,0,0,0-1.179-7.823c-.57-3.4-.786-6.846-1.2-10.267-.589-4.851-1.578-9.644-2.566-14.431-4.687-22.709-9.378-45.436-15.479-67.807,0,0-.256-1.079-.78-3.153-.67-2.652-2.486-4.841-4.251-6.931L410.83,325.852a8.887,8.887,0,0,0-2.075-1.979,21.536,21.536,0,0,0-3.107-1.2,15.181,15.181,0,0,1-2.807-1.656l-4.009-2.774a11.748,11.748,0,0,1-5.522-6.961L389,300.627c-1.028-2.545-2.058-5.092-2.881-7.71-.84-2.673-1.5-5.486-3.155-7.746l-1.991,1.443c-1.3,3.235.032,6.244.713,9.664a148.29,148.29,0,0,0,7.5,25.458" transform="translate(-69.596)"/><path class="b" d="M465.02,520.9c-3.594,18.928-4.391,38.039-8.849,56.625a183.286,183.286,0,0,1-6.628,20.714" transform="translate(-86.098 -56.282)"/><path class="b" d="M456.379,609.407q11.412,2.453,22.91,4.476a8.6,8.6,0,0,0-4.13,1.778,54.984,54.984,0,0,0,23.062,2.463" transform="translate(-87.73 -77.413)"/><path class="b" d="M493.623,615.011l8.336,1.35a69.835,69.835,0,0,0,7.724.958" transform="translate(-96.622 -78.751)"/><path class="b" d="M530.124,605.726a6.428,6.428,0,0,0-4.73,1.937,53.745,53.745,0,0,0,32.778,4,6.709,6.709,0,0,1-2.8-.647c.635-.7,1.739-.6,2.657-.835s1.767-1.456,1.018-2.035l2.878-.384" transform="translate(-104.208 -76.534)"/><path class="b" d="M458.26,601.149c7.271-.554,14.57.279,21.815,1.111l31.117,3.576" transform="translate(-88.179 -75.398)"/><path class="b" d="M524.742,618.016q8.754,1.2,17.576,1.8" transform="translate(-104.052 -79.468)"/><path class="b" d="M491.339,530.934a107.933,107.933,0,0,0-17.911-5.509h-.208c-.527-.206-2.2.817-1.856,1.724a3.528,3.528,0,0,0,.878,1.4c3.881,3.512,9.484,4.215,14.179,6.528,6.429,3.168,10.88,9.192,16.271,13.914a47.726,47.726,0,0,0,8.19,5.771,8.631,8.631,0,0,1,3.481,2.741,7.6,7.6,0,0,1,.789,2.377,115.123,115.123,0,0,1,2.336,28.661" transform="translate(-91.297 -57.355)"/><path class="b" d="M471.4,521.655a53.615,53.615,0,0,1,20.031,8.4" transform="translate(-91.317 -56.462)"/><path class="b" d="M472.439,515.687c8.218-.266,16.052,3.164,23.555,6.527" transform="translate(-91.565 -55.033)"/><path class="b" d="M472.439,508.572a50.253,50.253,0,0,0,9.312,6.538" transform="translate(-91.565 -53.338)"/><path class="b" d="M471.877,499.179a69.038,69.038,0,0,0,17.949,8.319,67.348,67.348,0,0,1,8.32,2.686,13.7,13.7,0,0,1,6.581,5.534" transform="translate(-91.43 -51.095)"/><path class="b" d="M515.691,509.684c-11.089-7.04-18.5-18.446-27.312-28.184a20.194,20.194,0,0,0-3.69-3.4c-.363-.241-1.5,1.149-1.5,1.149a4.889,4.889,0,0,0,.4,4.252,23.044,23.044,0,0,0,2.715,3.484c4.617,5.623,8.03,12.086,12.43,17.356" transform="translate(-94.054 -46.055)"/><path class="b" d="M556.909,579.325,545.828,550.05c-3.178-8.4-6.422-16.917-11.779-24.123a23.679,23.679,0,0,1-3.545-5.549,18.636,18.636,0,0,1-.875-4.142c-.924-7.024-2.559-17.784-2.174-19.506l1.448-6.484a13.685,13.685,0,0,0-2.547,0,5.362,5.362,0,0,0-2.171.91,7.574,7.574,0,0,0-1.927,2.136c-2.638,4.887-2.285,10.778-1.861,16.315" transform="translate(-102.944 -48.947)"/><path class="b" d="M258.2,618.427c.491,1.568,3.058,1.825,4.574,2.459,1.344.563,2.993,1.252,3.151,2.7.042.382-.036.773.037,1.15.218,1.115,1.546,1.558,2.658,1.793l7.12,1.5" transform="translate(-40.413 -79.566)"/><path class="b" d="M360.334,633.493a3.88,3.88,0,0,0,.816,4.545,10.661,10.661,0,0,0,4.325,2.359,115.533,115.533,0,0,0,13.714,3.857c2.452.529,5.045,1.035,6.945,2.673a5.736,5.736,0,0,0,1.047.822,3.233,3.233,0,0,0,1.363.3c1.114.046,2.229-.158,3.342-.085,3.93.255,6.748,3.7,9.935,6.019a19.3,19.3,0,0,0,13.17,3.551" transform="translate(-64.696 -83.163)"/><path class="b" d="M440.713,656.226a32.664,32.664,0,0,0,15.6-4.4,9.557,9.557,0,0,0,3-2.443c1.188-1.615,1.417-3.72,1.608-5.717a7.792,7.792,0,0,0-3.015-8.407,42.075,42.075,0,0,0-7.8-6.2" transform="translate(-83.99 -82.105)"/><path class="b" d="M435.837,666.954l30.071,4.314a93.785,93.785,0,0,0,16.375,1.378,16.324,16.324,0,0,1,5.936.4c-2.6,1.3-5.646,1.22-8.547,1.071q-10.438-.536-20.827-1.73a.724.724,0,0,0-.292.816l2.03,1.723-2.9-.93a1.2,1.2,0,0,0-1.711.552l-3.511,4.975" transform="translate(-82.826 -91.152)"/><path class="b" d="M520.623,619.549c8.283,6.407,19.812,6.253,29.447,10.355.412.176.882.443.907.891.022.394-.323.7-.652.922a7.4,7.4,0,0,1-2.619,1.076,3.042,3.042,0,0,0,2.162,1.571c.885.148,1.9-.075,2.6.477,1.048.819.511,2.513.968,3.761a2.448,2.448,0,0,0,3.026,1.4l-1.386,1.516,8.457,1.621" transform="translate(-103.069 -79.834)"/><path class="b" d="M544.644,623.945l2.537.332c.921.12,1.842.241,2.769.309a24.827,24.827,0,0,0,12.093-2.172" transform="translate(-108.804 -80.518)"/><path class="b" d="M561.608,619.51a19.413,19.413,0,0,0,5.578-.707" transform="translate(-112.854 -79.656)"/><path class="b" d="M289.724,632.262a3.1,3.1,0,0,0,2.031-.315" transform="translate(-47.94 -82.794)"/><path class="b" d="M308.512,633.482a55.512,55.512,0,0,0,14.372-.7" transform="translate(-52.426 -82.994)"/><path class="b" d="M93.23,522.469c-1.338-.3-4.3-.013-4.3,2.062s5.549,3.819,8.729,4.07c6.172.487,18.88.737,18.517,1.462s-5.349.336-5.859,1.493,23.807.666,35.715.657c1.078,0,2.367-.628,2.476-1.027s-1.364-.763-1.436-1.41,6.925-.484,9.33-.625" transform="translate(0 -56.632)"/><path class="b" d="M94.646,519.611c-.484-4.067,1.73-7.96,4.249-11.191,3.419-4.386,7.7-8.3,12.925-10.2-2.1,1.9-2.444,5.139-1.806,7.9s2.077,5.263,3.066,7.919a25.343,25.343,0,0,1,1.589,8.744" transform="translate(-1.349 -50.867)"/><path class="b" d="M117.227,495.8a26.209,26.209,0,0,1,14.3-3.576c2.257.18,4.695.655,6.661-.467,1.344-.767,2.217-2.163,3.487-3.048s3.409-.967,4.029.452a13.072,13.072,0,0,1,.342,1.589c.495,1.687,2.562,2.249,4.3,2.5s3.8.7,4.433,2.341a4.66,4.66,0,0,0,.5,1.285c.629.794,1.923.5,2.808,1,.6.333.939.983,1.447,1.441,1.6,1.446,4.218.61,6.2,1.462,2.492,1.073,3.11,4.347,2.817,7.044s-1.532,5.174-.613,7.727" transform="translate(-6.756 -48.441)"/><path class="b" d="M174.372,533.43c-1.73.751-2.788,1.34-4.517,2.09-.423.183-.932.572-.734.988a.876.876,0,0,0,.685.371,135.63,135.63,0,0,0,39,1.79c1.47-.158,5.092-.462,5.173-.845a9.267,9.267,0,0,0,0-1.5c0-.449,6.087.169,6.087-.37s-.994-.627-1.015-1.063,3.378.006,4.853-.254" transform="translate(-19.135 -59.273)"/><path class="b" d="M174.613,547.317l-8.177-.544c-1.908-.127-3.818-.254-5.707-.547-3.7-.574-10.338-1.768-10.581-3.569s6.42-2.319,6.372-3-2.855-1.158-4.039-1.158" transform="translate(-14.615 -60.483)"/><path class="b" d="M166.912,554.714a112.642,112.642,0,0,0,16.143,2c8.062.409,16.111-.134,16.143.8.031.905-5.023,2.383-10.175,2.874-5.243.5-10.587.005-10.772.522-.369,1.025,3.929,2.412,6.2,2.847a39.28,39.28,0,0,0,12.075.413" transform="translate(-18.619 -64.355)"/><path class="b" d="M217.922,545.645c2.766,1.558,4.884,4.025,6.943,6.443l3.248,3.815a3.025,3.025,0,0,1-1.382.811l9.745,6.714q-7.049.091-14.1-.263c-3.544-.178-7.169-.462-10.411-1.9a24.282,24.282,0,0,0,7.2-3.078l-6.1-.357" transform="translate(-29.376 -62.189)"/><path class="b" d="M190.375,572.25c.907.5,1.822,1.028,2.758,1.526a63.221,63.221,0,0,0,11.833,3.55c4.516.64,9.2.757,9.2,1.476.011,1.261-13.042.358-12.919,2.4s17.251,1.114,17.251,2.425-7.076,1.841-7.341,3.377,3.837,1.054,3.815,3.02-5.317,1.5-8.2,1.105" transform="translate(-24.22 -68.541)"/><path class="b" d="M200.72,589.951a17.068,17.068,0,0,1-6.53,3.41c-1.224.33-2.85,1.08-2.482,2.293.2.671.955.984,1.618,1.21,1.867.636,5.615.446,5.6,1.908s-2.5.993-2.852,2.167c-.333,1.113.955,1.983,2.03,2.423,11.577,4.742,20.7,6.672,36.512,7.731" transform="translate(-24.526 -72.768)"/><path class="b" d="M255.615,536.76l9.774,3.779a2.487,2.487,0,0,1,1.061.632,3.619,3.619,0,0,1,.479,1.021c1.592,3.954,8.256,3.355,10.143,7.178a3.24,3.24,0,0,0-2.573,3.676c.311,1.585,1.754,2.654,3.088,3.566l2.4,1.64a30.569,30.569,0,0,0-7.424,2.551c.264,1.271,1.616,1.959,2.829,2.422a53.376,53.376,0,0,0,13.187,3.191" transform="translate(-39.797 -60.068)"/><path class="b" d="M244.584,483.379a217.406,217.406,0,0,1-20.953,42.986" transform="translate(-32.16 -47.323)"/><path class="b" d="M176.033,516.269c4.237-6.34,10.453-11.037,15.877-16.4,9.621-9.506,16.309-19.776,20.432-32.657.091-.283,1.309-5.429,1.125-5.664" transform="translate(-20.796 -42.112)"/><path class="b" d="M267.949,452.566c2.355-1.44,3.314-5.45,3.518-8.2a13.858,13.858,0,0,1,2.9-7.486,5.389,5.389,0,0,1,2.519-1.968,2.477,2.477,0,0,1,2.856.933,3,3,0,0,1-.342,2.945,25.058,25.058,0,0,0-1.706,2.6,7.113,7.113,0,0,0-.458,3.171c.183,4.988,2.3,9.791,2.192,14.781-.058,2.674-.755,5.344-.416,8,.5,3.885,3.118,7.127,4.568,10.766.717,1.8,1.148,3.7,1.779,5.533a52.845,52.845,0,0,0,2.329,5.418l8.877,18.711" transform="translate(-42.742 -35.722)"/><path class="b" d="M238.247,460.966c-4.453-1.4-5.8-2.311-9.766-4.015-1.04-.448-4.581-2.16-5.964-1.9-1.009.187-.115,2.265.014,2.495.308.545,6.657,4.274,8.741,5.775" transform="translate(-31.781 -40.553)"/><path class="b" d="M258.331,452.8c-2.855-4.8-7.088-7.064-10.968-11.075-3.828-3.958-6.831-8.642-10.572-12.681a2.782,2.782,0,0,0-2.176-1.189,1.935,1.935,0,0,0-1.452,2.1,5.525,5.525,0,0,0,1.1,2.559,174.44,174.44,0,0,0,11.891,16.24,3.51,3.51,0,0,1-4.292.607s-8.419-5.1-15.3-9.375a5,5,0,0,0-2.705-.892,1.923,1.923,0,0,0-1.369.6,2.01,2.01,0,0,0-.18,1.257,5.716,5.716,0,0,0,1.794,2.533c5.379,4.987,16.648,9.975,16.212,10.609-.448.653-1.494.643-2.918.064" transform="translate(-31.838 -34.063)"/><path class="b" d="M289.434,514.5c.018.592.9.582,1.421.866a1.432,1.432,0,0,1,.128,2.144,4.134,4.134,0,0,1-2.213,1.012,14.941,14.941,0,0,1,6.483,1.761c.093.757-.955,1.045-1.717,1.038q-10.87-.105-21.722-.8a11.972,11.972,0,0,1-4.046-.74,4.145,4.145,0,0,1-2.577-3l2.182-.591a100.2,100.2,0,0,0-3.77-24.326,9.809,9.809,0,0,0-1.51-3.448,9.042,9.042,0,0,0-2.508-2.029c-5.423-3.3-12.1-5.632-14.933-11.313a13.854,13.854,0,0,0-1.685-3.1,9.62,9.62,0,0,0-2.352-1.7c-1.355-.827-4.411-2.232-5.859-3.443a1.9,1.9,0,0,1-.591-1.523,1.413,1.413,0,0,1,.782-.952,2.437,2.437,0,0,1,1.37.17,96.433,96.433,0,0,1,9.348,2.736,39.2,39.2,0,0,1,2.424,3.258l2.125,2.316" transform="translate(-34.675 -42.766)"/><path class="b" d="M170.475,363.175c-1.576-.719-2.852-.441-4.61-.627a10.447,10.447,0,0,1-5.214-2.692c-1.469-1.189-3.166-2.673-4.545-3.966,0,0-.945-.974-1.733-.163a3.116,3.116,0,0,0-.5,3.178,7.617,7.617,0,0,0,1.962,2.73,29.616,29.616,0,0,0,3.637,3.057,13.791,13.791,0,0,1,1.56,1.2c.632.6,2.831,2.559,3.454,3.169" transform="translate(-15.453 -16.769)"/><path class="b" d="M215.258,406.684a154.76,154.76,0,0,1-16.99-20.267c-4.615-6.575-8.722-13.513-13.661-19.849a23.03,23.03,0,0,0-3.2-3.507,25.527,25.527,0,0,0-7.9-4.019c-10.37-3.795-21.088-7.349-29.79-14.147a95.647,95.647,0,0,1-9.765-9.228s-.84,2.455-.113,3.787a22.643,22.643,0,0,0,6.111,6.668c2.851,2.213,5.806,4.079,8.657,6.292" transform="translate(-10.651 -12.056)"/><path class="b" d="M150,364.254a58.024,58.024,0,0,1-21.3-4.407c-1.6-.662-3.366-1.648-3.645-3.354-.129-.788.281-1.768,1.076-1.84,0,0,6.6,2.039,9.458,2.782,3.414.887,7.89,2.053,11.4,1.669" transform="translate(-8.619 -16.589)"/><g transform="translate(122.633 347.809)"><path class="b" d="M154.669,371.217a49.578,49.578,0,0,1-17.014,8.707,5.328,5.328,0,0,1-2.9.241,1.972,1.972,0,0,1-1.5-2.2s12.5-6.387,18.409-10.077c.139-.086.3-.228.24-.381s-.343.065-.185.1" transform="translate(-133.203 -367.455)"/></g><path class="b" d="M157.706,374.56c1-.037,3.048,1.588,3.572,2.435a2.9,2.9,0,0,1,.513,1.219,2.778,2.778,0,0,1-.183,1.07,33.579,33.579,0,0,1-5.378,10.287,4.57,4.57,0,0,0-.992,1.742,1.44,1.44,0,0,0,.768,1.68,1.929,1.929,0,0,0,1.634-.451,18.336,18.336,0,0,0,5.553-6.992c1.37-2.678,3.366-6.429,4.715-9.408" transform="translate(-15.822 -21.342)"/><path class="b" d="M167.553,373.1c2.421,1.721,5.092,4.677,7.9,5.637,1.562.534,3.171.943,4.674,1.627,5.036,2.291,8.213,7.29,10.9,12.127a204.278,204.278,0,0,1,17.994,43.686" transform="translate(-18.772 -20.994)"/></g></svg>