<svg xmlns="http://www.w3.org/2000/svg" xmlns:xlink="http://www.w3.org/1999/xlink" width="29" height="28" viewBox="0 0 29 28"><defs><style>.a{fill:#fff;stroke:#707070;}.b{clip-path:url(#a);}.c{fill:#d5e0f5;}</style><clipPath id="a"><rect class="a" width="29" height="28" transform="translate(5 3)"/></clipPath></defs><g class="b" transform="translate(-5 -3)"><path class="c" d="M-1292,13.486a10.927,10.927,0,0,1-7.778-3.222A10.927,10.927,0,0,1-1303,2.486a10.97,10.97,0,0,1,2.785-7.316l1.42,1.42a8.989,8.989,0,0,0-2.206,5.9,9.01,9.01,0,0,0,9,9,9.01,9.01,0,0,0,9-9,9.043,9.043,0,0,0-3.677-7.253l1.432-1.432a11.2,11.2,0,0,1,1.024.906A10.926,10.926,0,0,1-1281,2.486a10.925,10.925,0,0,1-3.222,7.778A10.926,10.926,0,0,1-1292,13.486Z" transform="translate(1312 15.515)"/><path class="c" d="M2.885.479,7.467,5.195l-7.835.189Z" transform="matrix(0.777, -0.629, 0.629, 0.777, 21.125, 9.376)"/></g></svg>