<svg xmlns="http://www.w3.org/2000/svg" xmlns:xlink="http://www.w3.org/1999/xlink" width="60" height="60" viewBox="0 0 60 60"><defs><style>.a,.e{fill:#fff;}.a{stroke:#707070;}.b{clip-path:url(#a);}.c{opacity:0.7;}.d{fill:#8b9197;}.e{isolation:isolate;}</style><clipPath id="a"><rect class="a" width="60" height="60" transform="translate(758 143)"/></clipPath></defs><g class="b" transform="translate(-758 -143)"><g class="c" transform="translate(497.611 -280.959)"><rect class="d" width="36" height="36" rx="18" transform="translate(272.389 435.959)"/><path class="e" d="M286.99,448.439l7.158-7.158a1.5,1.5,0,1,0-2.121-2.121l-7.158,7.158-7.161-7.158a1.5,1.5,0,0,0-2.121,2.121l7.161,7.158-7.161,7.161a1.5,1.5,0,0,0,2.121,2.121l7.161-7.161,7.158,7.161a1.5,1.5,0,1,0,2.121-2.121Z" transform="translate(5.52 5.52)"/></g></g></svg>